<svg version="1.2" xmlns="http://www.w3.org/2000/svg" viewBox="0 0 175 175" width="175" height="175">
	<title>output-svg</title>
	<style>
		.s0 { fill: #f17d1e } 
		.s1 { fill: #fef8ed } 
		.s2 { fill: #d50910 } 
		.s3 { fill: #ef6b1d } 
	</style>
	<g id="Layer 1">
		<path class="s0" d="m134 26c15.9 12.7 27.5 30.5 30 51 1.4 21.7-3 42.2-17.3 59.1q-0.8 1-1.7 1.9-0.7 0.9-1.5 1.8c-13.4 14.8-34 22.1-53.5 23.2-20.2 0.4-38.9-6.9-54.2-20.2-15.8-15.5-23.9-34.5-24.3-56.6 0.1-21.3 8.7-39.3 23.5-54.5 26.8-26 69.1-27.5 99-5.7z"/>
		<path class="s1" d="m43.7 41.1c2.3 0.9 2.3 0.9 4.3 2.9 0.4 2.4 0.4 2.4 0 5-1.6 2.1-1.6 2.1-3.7 4.2-8.7 9.3-12.4 21.1-12.9 33.7-0.5 2.6-1.3 3.5-3.4 5.1-3.3-0.2-4.6-0.6-7-3-1.3-15.1 4.2-30.3 13.8-41.9 5.3-6.1 5.3-6.1 8.9-6z"/>
		<path class="s2" d="m87 75q1 0 2 0c3 5.8 3 5.8 3 8 3 0 5.9 0 9 0-2 4-2 4-3.6 5.5-1.9 2.1-1.7 3.4-1.6 6.2q0.1 1.2 0.1 2.4c0 1 0 1 0.1 1.9-1.3-0.5-1.3-0.5-2.6-1.1-4.9-1.3-8.6-0.1-13.4 1.1q0.1-0.9 0.2-1.8c0.3-5.5 0.3-5.5-2.7-10.1q-1.2-1.1-2.5-2.1 0-1 0-2c3 0 5.9 0 9 0q0.5-1.4 0.9-2.9c1.1-3.1 1.1-3.1 2.1-5.1z"/>
		<path fill-rule="evenodd" class="s3" d="m123 22c7.1 0.7 10.8 4.4 16 9q1.2 1 2.4 2.1c13.6 12.7 21.4 30.9 22.9 49.3 0.5 18.6-4.6 36-16.3 50.6q-1 1.2-2 2.5c-8.3 9.8-18.1 16.8-30 21.5-1.4 0.6-1.4 0.6-2.8 1.2-6.1 2.4-11.6 3.6-18.2 3.8q-1.8 0.1-3.7 0.2c-11.1 0.3-20.8-1.6-31.3-5.2q0-2.5 0-5 0.9 0 1.9 0.1c13 0.3 24.6 0.1 37.1-4.1 1.4-0.5 1.4-0.5 2.8-0.9 9.7-3.5 20.4-10.5 26.2-19.1q1 0 2 0 0.4-0.8 0.8-1.7c1.3-2.5 2.8-4.7 4.5-7 10.1-15.9 14.7-36.1 10.9-54.7-1.2-4.9-2.4-9.7-4.3-14.4-0.9-2.2-0.9-2.2-0.9-5.2q-1 0-2 0-0.5-1.1-1.1-2.2c-3.1-5.9-6.4-10.8-10.9-15.8q0-1 0-2-1.5 0-3 0c-0.5-1.5-0.5-1.5-1-3z"/>
	</g>
</svg>