<svg version="1.2" xmlns="http://www.w3.org/2000/svg" viewBox="0 0 175 175" width="175" height="175">
	<title>output (1)-svg</title>
	<style>
		.s0 { fill: #f1801e } 
		.s1 { fill: #ee6d20 } 
		.s2 { fill: #fdf9f0 } 
		.s3 { fill: #d90614 } 
		.s4 { fill: #d90513 } 
	</style>
	<g id="Layer 1">
		<path class="s0" d="m88.5 10.8q1.3-0.1 2.6-0.1c20.5 0.1 38.8 9.4 53.2 23.5 15 15.7 21.2 35.9 20.9 57.2-0.6 17.3-8.1 34.4-19.2 47.6q-1 0-2 0-0.5 1.5-1 3c-10.2 9.7-21.7 15.1-35 19q-1.3 0.4-2.6 0.8c-19.6 4.8-39.3 0-56.4-9.8q-1.3-0.7-2.6-1.4c-11.6-7.1-20.1-17.7-26.4-29.6-0.7-1.3-0.7-1.3-1.5-2.7-8.8-17.4-8.4-38.4-2.4-56.6 1.2-3 2.5-5.8 3.9-8.7q0.7-1.5 1.5-2.9c9.5-17.8 24.5-29.2 43.2-36.2 8-2.3 15.5-3.2 23.8-3.1z"/>
		<path class="s1" d="m135 26c15.3 12 26.2 29 29.6 48.3 2.6 23.3-3.3 43.4-16.7 62.4q-0.9 1.1-1.9 2.3-1 0-2 0-0.5 1.5-1 3c-10.2 9.7-21.7 15.1-35 19q-1.3 0.4-2.6 0.8c-16 3.9-34.8 1.6-49.4-5.8q0-1.5 0-3-1.5-0.5-3-1c2.7-1.4 4.8-0.7 7.7-0.3 13.2 1.6 25.7 0.4 38.3-3.7 1.4-0.5 1.4-0.5 2.9-0.9 9.6-3.5 20.3-10.5 26.1-19.1q1 0 2 0 0.4-0.8 0.8-1.7c1.3-2.5 2.8-4.7 4.4-7 10.2-15.9 14.8-36.1 11-54.7-1.2-4.9-2.4-9.7-4.3-14.4-0.9-2.2-0.9-2.2-0.9-5.2q-1 0-2 0-0.5-1.1-1.1-2.2c-3.1-5.9-6.4-10.8-10.9-15.8q0-1 0-2-1.5 0-3 0c-2.7-2.4-2.7-2.4-5-5q0-1 0-2-1.6-0.2-3.2-0.4-2.1-0.3-4.2-0.5-1.1-0.2-2.2-0.3c-5.3-0.7-5.3-0.7-6.4-1.8-11.9-2-24-0.9-36 0q0 1 0 2-1.8 0.4-3.7 0.8c-2.8 0.7-4.5 1.3-7.1 2.9-2.2 1.3-2.2 1.3-4.3 0.9-1-0.3-1-0.3-1.9-0.6 27.4-15.6 59.4-13.3 85 5z"/>
		<path class="s2" d="m43.6 41.1c2.4 0.9 2.4 0.9 4.4 2.9 0.4 2.9 0.5 4.4-1.3 6.7q-0.9 0.9-1.8 1.7c-8.8 9.5-12.8 21.7-13.5 34.4-0.5 2.7-1.2 3.6-3.4 5.2-3.3-0.2-4.6-0.6-7-3-0.9-18.1 6.6-32.8 18-46.5 2-1.5 2-1.5 4.6-1.4z"/>
		<path class="s3" d="m70 56c2.3 2.8 3.1 4.3 4 8 3 0.3 5.9 0.7 9 1-2 4-2 4-3.7 5.8-2 3.5-1 6.2-0.3 10.2-1.4-0.5-1.4-0.5-2.8-0.9q-1.6-0.6-3.2-1.1-1-0.4-2.1-0.8c-2.9-0.3-4.5 1.2-6.9 2.8q-1 0-2 0 0.1-1 0.2-2c0.3-6.3 0.3-6.3-2.7-11.6q-1.2-1.2-2.5-2.4 0.9-0.1 1.8-0.2c4.9-0.6 4.9-0.6 8.7-3.5 1.2-2.1 1.2-2.1 2.5-5.3z"/>
		<path class="s4" d="m106 92c3.6 2.4 3.9 3.9 5 8 3 0.3 5.9 0.7 9 1-1.2 1.2-1.2 1.2-2.5 2.4-3.1 3.7-2.9 7-2.7 11.6q0.1 1 0.2 2-1.3-0.8-2.6-1.6c-3.9-1.6-5.4-1.4-9.4-0.4q-2 0.5-4 1 0.1-0.9 0.2-1.8c0.2-4.4 0.3-7.3-2.7-10.8q-1.2-1.2-2.5-2.4c4.5-0.5 4.5-0.5 9-1q0.5-1.4 0.9-2.9c1.1-3.1 1.1-3.1 2.1-5.1z"/>
	</g>
</svg>