<svg version="1.2" xmlns="http://www.w3.org/2000/svg" viewBox="0 0 175 175" width="175" height="175">
	<title>output (2)-svg</title>
	<style>
		.s0 { fill: #f17d1f } 
		.s1 { fill: #fdf8ed } 
		.s2 { fill: #d90512 } 
		.s3 { fill: #d4090f } 
		.s4 { fill: #d50910 } 
	</style>
	<g id="Layer 1">
		<path class="s0" d="m133.9 26.4q2.1 1.7 4.1 3.6c1.2 1.1 1.2 1.1 2.5 2.2 13.7 12.8 22.1 30.5 22.8 49.3 0.4 20.6-3.9 39.2-17.8 55.1q-2.2 2.2-4.5 4.4-1.1 1.1-2.1 2.1c-14.5 13.7-33.9 20.5-53.6 20.1-21.2-1.2-38.5-9.2-53.3-24.2q-1.1-1.1-2.3-2.3c-13.9-14.8-19.5-34-19-53.8 0.9-20.5 10.8-38.7 25.3-52.9 28.2-24.1 68-25.8 97.9-3.6z"/>
		<path class="s1" d="m42.2 41.6c2.8 0.4 2.8 0.4 4.8 2.4 0.5 2.2 0.5 2.2 0 5-1.3 1.8-2.8 3.4-4.3 5-8.2 9.5-12 21.7-12.3 34.1q-0.2 0.9-0.4 1.9c-3 2-3 2-5.6 1.7-2.4-0.7-2.4-0.7-4.4-2.7-1.5-15.9 6.1-31.4 15.4-43.8 2.2-2.5 3.4-3.2 6.8-3.6z"/>
		<path class="s2" d="m86 60q1.5 0.5 3 1c0.6 1.5 0.6 1.5 1.3 3q0.8 1.5 1.7 3c3.6 1 3.6 1 7 1q0 1.5 0 3-1 0.8-2 1.6c-3 3.6-2.3 6.9-2 11.4-1.3-0.5-1.3-0.5-2.6-1.1-5.2-1.4-8.7-0.3-13.4 2.1q0.1-1 0.2-2c0.3-6.3 0.3-6.3-2.7-11.6q-1.2-1.2-2.5-2.4c4.5-0.5 4.5-0.5 9-1 1.1-2.7 2.1-5.3 3-8z"/>
		<path class="s3" d="m105 89q1 0 2 0c3 5.8 3 5.8 3 8 3 0.3 5.9 0.7 9 1q-1.2 1.2-2.5 2.4c-3 3.5-2.9 6.4-2.7 10.8q0.1 0.9 0.2 1.8c-1.3-0.5-1.3-0.5-2.6-1.1-5.2-1.4-8.7-0.3-13.4 2.1q0.1-1 0.2-2c0.3-6.3 0.3-6.3-2.7-11.6q-1.2-1.2-2.5-2.4c4.5-0.5 4.5-0.5 9-1q0.5-1.4 0.9-2.9c1.1-3.1 1.1-3.1 2.1-5.1z"/>
		<path class="s4" d="m69 89c3.3 2.2 3.8 3.3 5 7 2.6 0.3 5.3 0.7 8 1q0 1.5 0 3c-1 0.8-1 0.8-2 1.6-3.1 3.7-2.3 7.7-2 12.4q-1.3-0.8-2.6-1.6c-3.9-1.6-5.4-1.4-9.4-0.4q-2 0.5-4 1 0.1-0.9 0.2-1.8c0.2-4.4 0.3-7.3-2.7-10.8q-1.2-1.2-2.5-2.4c4.5-0.5 4.5-0.5 9-1q0.5-1.4 0.9-2.9c1.1-3.1 1.1-3.1 2.1-5.1z"/>
	</g>
</svg>