<svg version="1.2" xmlns="http://www.w3.org/2000/svg" viewBox="0 0 175 175" width="175" height="175">
	<title>output (3)-svg</title>
	<style>
		.s0 { fill: #f17e21 } 
		.s1 { fill: #fdf9f0 } 
		.s2 { fill: #d90712 } 
		.s3 { fill: #d80513 } 
		.s4 { fill: #d70611 } 
		.s5 { fill: #d90514 } 
	</style>
	<g id="Layer 1">
		<path class="s0" d="m136.2 25.8c16.3 13.8 26 31.1 28.5 52.3 1.4 19.8-3.3 38.8-15.8 54.6-2.2 2.5-4.5 4.9-6.9 7.3q-1 1-2.1 2.1c-15.2 14.6-34.1 19.7-54.8 19.3-20.6-0.7-39-9.7-53.3-24.6-14.2-16.3-20.9-35.3-19.8-56.8 1.5-19.7 10.3-36.1 24-50q0.8-0.8 1.6-1.7c27.1-25.3 70.1-24.2 98.6-2.6z"/>
		<path class="s1" d="m43.4 39.8c2.6 0.2 2.6 0.2 4.6 2.2 0.6 2.6 0.6 2.6 0 6-1.3 1.7-1.3 1.7-3.1 3.5-8.9 9.4-12.8 21.7-13.6 34.4-0.3 2.1-0.3 2.1-2.3 4.1-3 0.3-3 0.3-6 0-3.6-5.5-2.1-11.5-0.9-17.6 2.9-12.6 8.8-22.4 17.9-31.4 1-1 1-1 3.4-1.2z"/>
		<path class="s2" d="m70 90c1.6 2 2.9 3.7 3.8 6.1 1 2.1 1 2.1 3.4 2.5 1.2 0.1 1.2 0.1 2.4 0.2 1.3 0 1.3 0 2.5 0.1q0.9 0.1 1.9 0.1-0.7 0.7-1.3 1.5c-3.5 3.9-3.5 3.9-4.9 8.8 0.3 2.4 0.3 2.4 1.2 5.7-1.4-0.5-1.4-0.5-2.7-0.9q-1.7-0.6-3.3-1.1-1-0.4-2.1-0.8c-2.9-0.3-4.5 1.2-6.9 2.8q-1 0-2 0 0.1-1 0.2-2c0.1-2.8 0.2-5.3-0.2-8-2.3-2.5-2.3-2.5-5-4q0-1 0-2 0.9-0.1 1.8-0.2c4.9-0.6 4.9-0.6 8.7-3.5 1.2-2.1 1.2-2.1 2.5-5.3z"/>
		<path class="s3" d="m106 90q1 0 2 0 0.5 1.7 0.9 3.4c0.8 2 0.8 2 2.1 3.6 2.9 1.2 5.8 1.7 9 2q0 1 0 2-1.2 0.7-2.5 1.5c-2.7 2.2-2.7 2.2-2.8 5 0 2.5 0.1 5 0.3 7.5q-1.1-0.5-2.3-0.9-1.3-0.6-2.7-1.1-0.9-0.4-1.9-0.8c-3.5-0.3-6 1.3-9.1 2.8q0.1-0.9 0.2-1.8c0.3-5.5 0.3-5.5-2.7-10.1q-1.2-1.1-2.5-2.1 0-1 0-2c4.5-0.5 4.5-0.5 9-1q0.5-1.4 0.9-2.9c1.1-3.1 1.1-3.1 2.1-5.1z"/>
		<path class="s4" d="m70 55c3.9 4.8 3.9 4.8 5 7 1.9 0.7 1.9 0.7 4.1 1.1 1.1 0.3 1.1 0.3 2.2 0.5q0.8 0.2 1.7 0.4-1.3 1.2-2.6 2.4c-1.9 2.2-2.4 3.3-2.5 6.2 0.3 2.5 0.6 4.9 1.1 7.4q-1-0.5-2.1-0.9c-4.7-1.8-7.5-2.7-12.3-0.7q-1.3 0.8-2.6 1.6 0.1-1 0.2-2c0.3-6.3 0.3-6.3-2.7-11.6q-1.2-1.2-2.5-2.4 0.9-0.1 1.8-0.2c4.9-0.6 4.9-0.6 8.7-3.5 1.2-2.1 1.2-2.1 2.5-5.3z"/>
		<path class="s5" d="m106 55c3.1 2.8 4 3.8 5 8 3 0.3 5.9 0.7 9 1-1.2 1.2-1.2 1.2-2.5 2.4-3.1 3.7-2.9 7-2.7 11.6q0.1 1 0.2 2-1.6-0.8-3.2-1.6c-3.3-1.4-5.3-1.5-8.8-0.4q-2 0.5-4 1 0.1-0.9 0.2-1.8c0.2-4.4 0.3-7.3-2.7-10.8q-1.2-1.2-2.5-2.4c4.5-0.5 4.5-0.5 9-1q0.5-1.4 0.9-2.9c1.1-3.1 1.1-3.1 2.1-5.1z"/>
	</g>
</svg>