<svg version="1.2" xmlns="http://www.w3.org/2000/svg" viewBox="0 0 175 175" width="175" height="175">
	<title>output (4)-svg</title>
	<style>
		.s0 { fill: #f17c1e } 
		.s1 { fill: #fef8ec } 
		.s2 { fill: #d50b0f } 
		.s3 { fill: #d50a0f } 
		.s4 { fill: #d5090f } 
		.s5 { fill: #d80712 } 
		.s6 { fill: #d80515 } 
	</style>
	<g id="Layer 1">
		<path class="s0" d="m133.9 28.4q2.1 1.8 4.1 3.6c1.1 1 1.1 1 2.3 2.1 14.8 13.9 22.4 32.8 23.1 52.9 0.3 21.6-7.7 41-22.6 56.8-15.1 14.3-35 21.6-55.7 21.5-20-0.5-38-8.8-52.4-22.4-8.2-8.8-14.4-18.7-18.7-29.9-0.5-1.3-0.5-1.3-1-2.6-4.7-14.8-3.6-33.1 2-47.4q0.4-1.3 0.8-2.6c6.5-18.6 22.2-32.6 39.4-41.1 26.4-11.3 55.6-8.2 78.7 9.1z"/>
		<path class="s1" d="m42.7 43.1c2.3 0.9 2.3 0.9 4.3 2.9 0.4 2.4 0.4 2.4 0 5-1.6 2.1-1.6 2.1-3.7 4.2-8.7 9.3-12.4 21.1-12.9 33.7-0.5 2.6-1.3 3.5-3.4 5.1-3.3-0.2-4.6-0.6-7-3-1.8-13.5 3.3-27.1 11-37.9q2-2.6 4-5.1 0.7-0.9 1.4-1.8c2.1-2.4 3.1-3.2 6.3-3.1z"/>
		<path class="s2" d="m69 106c1.8 1.7 2.9 2.7 3.7 5.1 2.2 3.2 5.6 3.2 9.3 3.9-1.2 2.5-2 4-4 6-0.2 2.4-0.2 2.4-0.1 5.1 0 1.4 0 1.4 0 2.8q0.1 1 0.1 2.1-1.1-0.5-2.2-0.9c-5.4-2.1-8.3-2.3-13.8-0.1q0-0.9 0-1.8c-0.4-6.1-1.7-8.9-6-13.2q0.9-0.1 1.8-0.2c4.9-0.6 4.9-0.6 8.7-3.5 1.2-2.1 1.2-2.1 2.5-5.3z"/>
		<path class="s3" d="m105 106q1 0 2 0c3 5.8 3 5.8 3 8 3 0.3 5.9 0.7 9 1-1.2 1.2-1.2 1.2-2.5 2.4-3.1 3.7-2.9 7-2.7 11.6q0.1 1 0.2 2-1.6-0.8-3.2-1.6c-3.3-1.4-5.3-1.5-8.8-0.4q-2 0.5-4 1 0.1-0.9 0.2-1.8c0.2-4.4 0.3-7.3-2.7-10.8q-1.2-1.2-2.5-2.4c3-1.5 5.7-1.1 9-1q0.5-1.4 0.9-2.9c1.1-3.1 1.1-3.1 2.1-5.1z"/>
		<path class="s4" d="m87 45c3.9 4.8 3.9 4.8 5 7 1.9 0.7 1.9 0.7 4.1 1.1 1.1 0.3 1.1 0.3 2.2 0.5q0.8 0.2 1.7 0.4c-1 3-1.7 4-4 6q-1 0-2 0c0.7 3.3 1.3 6.6 2 10q-1.1-0.5-2.2-0.9c-5.4-2.1-8.3-2.3-13.8-0.1q0-0.9 0-1.8c-0.4-6.1-1.7-8.9-6-13.2q0.9-0.1 1.8-0.2c4.9-0.6 4.9-0.6 8.7-3.5 1.2-2.1 1.2-2.1 2.5-5.3z"/>
		<path class="s5" d="m115 72q1 0 2 0c3 5.8 3 5.8 3 8 3 0.3 5.9 0.7 9 1-1.2 1.2-1.2 1.2-2.5 2.4-3.1 3.7-2.9 7-2.7 11.6q0.1 1 0.2 2-1.3-0.8-2.6-1.6c-3.9-1.6-5.4-1.4-9.4-0.4q-2 0.5-4 1 0.1-0.9 0.2-1.8c0.2-4.4 0.3-7.3-2.7-10.8q-1.2-1.2-2.5-2.4c3-1.5 5.7-1.1 9-1q0.5-1.4 0.9-2.9c1.1-3.1 1.1-3.1 2.1-5.1z"/>
		<path class="s6" d="m57 72q1 0 2 0c3 5.8 3 5.8 3 8 3 0.3 5.9 0.7 9 1q-1.2 1.2-2.5 2.4c-3 3.5-2.9 6.4-2.7 10.8q0.1 0.9 0.2 1.8c-1.3-0.5-1.3-0.5-2.6-1.1-5.2-1.4-8.7-0.3-13.4 2.1q0.1-1 0.2-2c0.3-6.3 0.3-6.3-2.7-11.6q-1.2-1.2-2.5-2.4c3-1.5 5.7-1.1 9-1q0.5-1.4 0.9-2.9c1.1-3.1 1.1-3.1 2.1-5.1z"/>
	</g>
</svg>