<svg version="1.2" xmlns="http://www.w3.org/2000/svg" viewBox="0 0 175 175" width="175" height="175">
	<title>output (5)-svg</title>
	<style>
		.s0 { fill: #f17c1f } 
		.s1 { fill: #fefaf1 } 
		.s2 { fill: #d90614 } 
		.s3 { fill: #d80613 } 
		.s4 { fill: #d60612 } 
		.s5 { fill: #d70712 } 
		.s6 { fill: #d60a11 } 
	</style>
	<g id="Layer 1">
		<path class="s0" d="m133.9 26.4q2.1 1.7 4.1 3.6c1.2 1.1 1.2 1.1 2.5 2.2 13.1 12.3 22 29.8 22.9 47.9 0.3 14-0.5 26-6.4 38.9-0.7 1.6-0.7 1.6-1.4 3.2-8.3 16.4-23 29.8-40.4 36-3 1-6.1 1.9-9.2 2.8q-1.3 0.4-2.6 0.7c-17.9 4.5-38.8 0.7-54.5-8.6-4.9-3-9.7-6.1-13.9-10.1q0-1 0-2-0.9-0.3-1.7-0.7c-10.8-6.3-17.7-23.6-20.7-35-4.9-20.2-1.1-40.7 9.3-58.5 11.1-17.9 28.8-29.4 49.1-34.5 22.4-4.5 44.5 0.4 62.9 14.1z"/>
		<path class="s1" d="m42.3 41.4c2.7 0.6 2.7 0.6 4.7 2.6 0.5 3.2 0.3 4.6-1.6 7.3q-1 1.2-2.1 2.4c-8 9.5-11.7 20.1-12.9 32.4-0.4 3.9-0.4 3.9-2.4 5.9-2.8 0.4-4.3 0.5-6.6-1.3-2.7-3.4-1.9-7.5-1.4-11.7 2-11.5 9.1-35.1 22.3-37.6z"/>
		<path class="s2" d="m123 75c2.5 2.4 3.9 3.7 5 7 3 0.3 5.9 0.7 9 1-2 4-2 4-3.6 5.4-2 2.3-1.7 3.9-1.6 6.8q0.1 1.3 0.1 2.7 0 1 0.1 2.1-1.3-0.8-2.6-1.6c-3.9-1.6-5.4-1.4-9.4-0.4q-2 0.5-4 1 0.1-0.9 0.2-1.8c0.3-5.5 0.3-5.5-2.7-10.1q-1.2-1.1-2.5-2.1 0-1 0-2 1.8 0 3.8-0.1c2.7-0.3 3.8-0.4 5.6-2.5 1.3-2.2 1.3-2.2 2.6-5.4z"/>
		<path class="s3" d="m86 75q1.5 0.5 3 1 0.6 1.4 1.2 2.9c1.4 3.2 1.4 3.2 3.8 3.9 2 0.5 4 0.9 6 1.2q-1.2 1.2-2.5 2.4c-3 3.5-2.9 6.4-2.7 10.8q0.1 0.9 0.2 1.8c-1.3-0.5-1.3-0.5-2.6-1.1-5.2-1.4-8.7-0.3-13.4 2.1q0.1-1 0.2-2c0.4-6 0.4-6-2.7-11q-1.2-1-2.5-2 0-1 0-2c4.5-0.5 4.5-0.5 9-1 1-2.3 2-4.6 3-7z"/>
		<path class="s3" d="m87 43q1 0 2 0 0.5 1.7 0.9 3.4c0.8 2 0.8 2 2.1 3.6 2.9 1.2 5.8 1.7 9 2-1.2 1.2-1.2 1.2-2.5 2.4-3.1 3.7-2.9 7-2.7 11.6q0.1 1 0.2 2-1.3-0.8-2.6-1.6c-3.9-1.6-5.4-1.4-9.4-0.4q-2 0.5-4 1 0.1-0.9 0.2-1.8c0.2-4.4 0.3-7.3-2.7-10.8q-1.2-1.2-2.5-2.4c0.9-0.2 0.9-0.2 1.9-0.4 5.5-1.5 5.5-1.5 9.2-5.8q0.4-1.4 0.9-2.8z"/>
		<path class="s4" d="m105 104q1 0 2 0 0.7 1.7 1.5 3.4c1.3 2.3 2 3.4 4.5 4.5 2 0.5 4 0.8 6 1.1q-1.2 1.2-2.5 2.4c-3 3.5-2.9 6.4-2.7 10.8q0.1 0.9 0.2 1.8c-0.9-0.3-0.9-0.3-1.7-0.5-6-1.7-8.9-1.5-14.3 1.5q0.1-1 0.2-2c0.3-6.3 0.3-6.3-2.7-11.6q-1.2-1.2-2.5-2.4c4.5-0.5 4.5-0.5 9-1q0.5-1.4 0.9-2.9c1.1-3.1 1.1-3.1 2.1-5.1z"/>
		<path class="s5" d="m50 75q1 0 2 0c3 5.8 3 5.8 3 8 3 0.3 5.9 0.7 9 1-1.2 1.2-1.2 1.2-2.5 2.4-3.1 3.7-2.9 7-2.7 11.6q0.1 1 0.2 2-1.3-0.8-2.6-1.6c-3.9-1.6-5.4-1.4-9.4-0.4q-2 0.5-4 1 0.1-0.9 0.2-1.8c0.2-4.4 0.3-7.3-2.7-10.8q-1.2-1.2-2.5-2.4c4.5-0.5 4.5-0.5 9-1q0.5-1.7 0.9-3.4c1.1-3.6 1.1-3.6 2.1-4.6z"/>
		<path class="s6" d="m69 104c3.1 2.8 4 3.8 5 8 3 0.3 5.9 0.7 9 1-1.2 1.2-1.2 1.2-2.5 2.4-3.1 3.7-2.9 7-2.7 11.6q0.1 1 0.2 2-1.3-0.8-2.6-1.6c-3.9-1.6-5.4-1.4-9.4-0.4q-2 0.5-4 1 0.1-0.9 0.2-1.8c0.2-4.4 0.3-7.3-2.7-10.8q-1.2-1.2-2.5-2.4c4.5-0.5 4.5-0.5 9-1q0.5-1.7 0.9-3.4c1.1-3.6 1.1-3.6 2.1-4.6z"/>
	</g>
</svg>