<svg version="1.2" xmlns="http://www.w3.org/2000/svg" viewBox="0 0 175 175" width="175" height="175">
	<title>output (6)-svg</title>
	<style>
		.s0 { fill: #f27d20 } 
		.s1 { fill: #fef8ec } 
		.s2 { fill: #d80513 } 
		.s3 { fill: #d70a11 } 
		.s4 { fill: #d50810 } 
		.s5 { fill: #d60910 } 
		.s6 { fill: #d40b0e } 
		.s7 { fill: #d90515 } 
		.s8 { fill: #d5090f } 
	</style>
	<g id="Layer 1">
		<path class="s0" d="m135.5 27q2.3 2 4.5 4 1 0.9 2.1 1.8c13.2 12.2 21.2 31.7 22.1 49.5 0.5 13.9-1.5 27.3-8.2 39.7q-0.6 1.2-1.3 2.4c-11.1 19.9-28.8 30.9-50.2 37.3-20.2 5-41.1-0.2-58.5-10.7-3.2-2.1-6.1-4.4-9-7q-1.1-1-2.2-1.9c-15.5-14.4-23.4-34.3-24.2-55.2 0.8-20.7 9.3-41.6 24.6-56 29.5-23.8 69.4-27.9 100.3-3.9z"/>
		<path class="s1" d="m42.9 41.3c3.1 0.7 3.1 0.7 5.1 2.7-0.2 4.6-2.5 7.2-5.3 10.8-7.7 9.8-10.7 19.4-11.3 31.8-0.5 2.8-1.1 3.7-3.4 5.4-2.6 0.4-2.6 0.4-5 0-3.6-5.4-2.5-13-1.5-19.3 2.6-10.1 10.4-29.3 21.4-31.4z"/>
		<path class="s2" d="m69 47q1 0 2 0c3 5.8 3 5.8 3 8 3 0.3 5.9 0.7 9 1-2 4-2 4-5 6 0.3 3.3 0.7 6.6 1 10-1.4-0.5-1.4-0.5-2.8-0.9q-1.6-0.6-3.2-1.1-1-0.4-1.9-0.8c-3.5-0.3-6 1.3-9.1 2.8q0.1-1 0.2-2c0.3-6.3 0.3-6.3-2.7-11.6q-1.2-1.2-2.5-2.4 0.9-0.1 1.9-0.2c4.8-0.6 4.8-0.6 8.4-3.5 0.9-2.1 0.9-2.1 1.7-5.3z"/>
		<path class="s3" d="m51 74c2.9 3.7 2.9 3.7 3.7 6.1 2.2 3.2 5.6 3.2 9.3 3.9q-1.2 1.2-2.5 2.4c-3 3.5-2.9 6.4-2.7 10.8q0.1 0.9 0.2 1.8c-1.3-0.5-1.3-0.5-2.6-1.1-5.4-1.4-8.5-0.4-13.4 2.1 0.3-3.6 0.7-7.3 1-11q-2-1-4-2c-1.3-2.1-1.3-2.1-2-4q0.9 0 1.8 0.1c2.6-0.1 4.7-0.3 7.2-1.1 2-2.5 3-5 4-8z"/>
		<path class="s4" d="m123 75q1 0 2 0c3 5.8 3 5.8 3 8 3 0.3 5.9 0.7 9 1q-1.2 1.2-2.5 2.4c-3 3.5-2.9 6.4-2.7 10.8q0.1 0.9 0.2 1.8c-1.3-0.5-1.3-0.5-2.6-1.1-5.2-1.4-8.7-0.3-13.4 2.1q0.1-1 0.2-2c0.4-6 0.4-6-2.7-11q-1.2-1-2.5-2 0-1 0-2c4.5-0.5 4.5-0.5 9-1 1-2.3 2-4.6 3-7z"/>
		<path class="s5" d="m87 75c1.8 1.6 2.9 2.8 3.8 5.1 1 2.1 1 2.1 3.4 2.5q1.2 0.1 2.4 0.2c1.3 0 1.3 0 2.5 0.1q0.9 0.1 1.9 0.1c-1 2.2-1.8 3.8-3.6 5.4-2 2.3-1.7 3.9-1.6 6.8q0.1 1.3 0.1 2.7 0 1 0.1 2.1-1.3-0.8-2.6-1.6c-3.9-1.6-5.4-1.4-9.4-0.4q-2 0.5-4 1 0.1-0.9 0.2-1.8c0.3-5.5 0.3-5.5-2.7-10.1q-1.2-1.1-2.5-2.1 0-1 0-2 1.8 0 3.8-0.1c2.7-0.3 3.8-0.4 5.6-2.5 1.3-2.2 1.3-2.2 2.6-5.4z"/>
		<path class="s6" d="m106 47c1.8 1.6 2.9 2.8 3.8 5 1 2.2 1 2.2 3.4 2.8 1.2 0.2 1.2 0.2 2.4 0.5q1.2 0.2 2.5 0.4 0.9 0.1 1.9 0.3c-1.2 1.2-1.2 1.2-2.5 2.4-3.1 3.7-2.9 7-2.7 11.6q0.1 1 0.2 2-1.1-0.5-2.2-0.9c-2.7-1.1-4.9-1.9-7.8-2.1q-2.5 1.4-5 3-1-0.5-2-1c0.7-3 1.3-5.9 2-9q-2-1-4-2-1.5-2-3-4c3.3-0.3 6.6-0.7 10-1q0.5-1.4 0.9-2.9c1.1-3.1 1.1-3.1 2.1-5.1z"/>
		<path class="s7" d="m106 104c3 2 3 2 3.6 4.5 1.1 2.7 1.1 2.7 3.5 3.3 2.3 0.5 4.6 0.9 6.9 1.2-1.2 1.2-1.2 1.2-2.5 2.4-3.1 3.7-2.9 7-2.7 11.6q0.1 1 0.2 2-1.6-0.8-3.2-1.6c-3.3-1.4-5.3-1.5-8.8-0.4q-2 0.5-4 1 0.1-0.9 0.2-1.8c0.2-4.4 0.3-7.3-2.7-10.8q-1.2-1.2-2.5-2.4c3-1.5 5.7-1.1 9-1q0.2-0.9 0.4-1.7c0.6-2.3 1.5-4.2 2.6-6.3z"/>
		<path class="s8" d="m70 104c1.8 1.7 2.9 2.7 3.7 5.1 2.2 3.2 5.6 3.2 9.3 3.9q-1.2 1.2-2.5 2.4c-3 3.5-2.9 6.4-2.7 10.8q0.1 0.9 0.2 1.8c-1.3-0.5-1.3-0.5-2.6-1.1-5.2-1.4-8.7-0.3-13.4 2.1q0.1-1 0.2-2c0.3-6.3 0.3-6.3-2.7-11.6q-1.2-1.2-2.5-2.4 0.9-0.1 1.8-0.2c4.9-0.6 4.9-0.6 8.7-3.5 1.2-2.1 1.2-2.1 2.5-5.3z"/>
	</g>
</svg>