<svg version="1.1" id="Layer_1" xmlns="http://www.w3.org/2000/svg" xmlns:xlink="http://www.w3.org/1999/xlink" x="0px" y="0px"
	 width="100%" viewBox="0 0 1600 1600" enable-background="new 0 0 1600 1600" xml:space="preserve">
<path fill="#6EB720" opacity="1.000000" stroke="none" 
	d="
M4.000000,1.000000 
	C536.267395,1.000000 1068.534790,1.000000 1601.000000,1.000000 
	C1601.000000,533.034912 1601.000000,1065.069824 1600.537354,1597.552368 
	C1071.253906,1598.000000 542.433167,1598.000000 13.612413,1598.000000 
	C12.112450,1598.000000 10.596421,1597.857910 9.115638,1598.026367 
	C5.233190,1598.467651 3.463708,1596.956909 3.978431,1592.959351 
	C4.126195,1591.811768 3.999704,1590.628906 3.999704,1589.462280 
	C3.999744,1059.974854 3.999880,530.487427 4.000000,1.000000 
M364.373199,1419.121948 
	C391.744568,1438.422729 420.209991,1455.947754 449.908051,1471.430542 
	C544.816833,1520.909546 645.642822,1549.189819 752.502563,1556.070679 
	C828.193726,1560.944702 902.939697,1554.821777 976.707764,1537.326172 
	C1080.655151,1512.673218 1175.178589,1467.946899 1260.202271,1403.242432 
	C1349.991699,1334.911255 1421.258179,1250.804688 1473.646851,1150.907837 
	C1525.440308,1052.146362 1553.770020,946.916504 1559.050415,835.478394 
	C1563.359131,744.543762 1552.062988,655.627686 1524.295532,568.940491 
	C1484.748169,445.478027 1417.758301,339.109192 1324.001465,249.594757 
	C1272.250366,200.185394 1214.585449,158.991455 1151.096069,126.051949 
	C1053.928223,75.639519 950.630920,47.595242 841.280334,41.951527 
	C750.215637,37.251568 661.066956,48.110287 574.103271,75.602478 
	C450.663818,114.625923 344.138580,181.053986 254.316498,274.267944 
	C201.717133,328.853577 158.330902,390.030304 124.225685,457.690948 
	C78.245750,548.909668 51.823368,645.535278 44.930550,747.512268 
	C40.136181,818.443481 44.935551,888.660400 59.898853,958.152466 
	C89.476601,1095.516724 152.730652,1215.303833 248.347137,1318.080566 
	C283.293030,1355.643433 321.969269,1388.996338 364.373199,1419.121948 
z"/>
<path fill="#5B8852" opacity="1.000000" stroke="none" 
	d="
M3.500000,1.000000 
	C3.999880,530.487427 3.999744,1059.974854 3.999704,1589.462280 
	C3.999704,1590.628906 4.126195,1591.811768 3.978431,1592.959351 
	C3.463708,1596.956909 5.233190,1598.467651 9.115638,1598.026367 
	C10.596421,1597.857910 12.112450,1598.000000 13.612413,1598.000000 
	C542.433167,1598.000000 1071.253906,1598.000000 1600.537354,1598.000000 
	C1600.951904,1599.654419 1601.621460,1601.871582 1598.493408,1601.024292 
	C1597.872437,1600.856079 1597.166626,1601.000000 1596.500000,1601.000000 
	C1064.666748,1601.000000 532.833374,1601.000000 1.000048,1601.000000 
	C1.000000,1069.166748 0.997593,537.333435 1.141106,5.500229 
	C1.141455,4.211318 -1.328343,0.872721 3.500000,1.000000 
z"/>
<path fill="#FEFEFE" opacity="1.000000" stroke="none" 
	d="
M364.075745,1418.921997 
	C321.969269,1388.996338 283.293030,1355.643433 248.347137,1318.080566 
	C152.730652,1215.303833 89.476601,1095.516724 59.898853,958.152466 
	C44.935551,888.660400 40.136181,818.443481 44.930550,747.512268 
	C51.823368,645.535278 78.245750,548.909668 124.225685,457.690948 
	C158.330902,390.030304 201.717133,328.853577 254.316498,274.267944 
	C344.138580,181.053986 450.663818,114.625923 574.103271,75.602478 
	C661.066956,48.110287 750.215637,37.251568 841.280334,41.951527 
	C950.630920,47.595242 1053.928223,75.639519 1151.096069,126.051949 
	C1214.585449,158.991455 1272.250366,200.185394 1324.001465,249.594757 
	C1417.758301,339.109192 1484.748169,445.478027 1524.295532,568.940491 
	C1552.062988,655.627686 1563.359131,744.543762 1559.050415,835.478394 
	C1553.770020,946.916504 1525.440308,1052.146362 1473.646851,1150.907837 
	C1421.258179,1250.804688 1349.991699,1334.911255 1260.202271,1403.242432 
	C1175.178589,1467.946899 1080.655151,1512.673218 976.707764,1537.326172 
	C902.939697,1554.821777 828.193726,1560.944702 752.502563,1556.070679 
	C645.642822,1549.189819 544.816833,1520.909546 449.908051,1471.430542 
	C420.209991,1455.947754 391.744568,1438.422729 364.075745,1418.921997 
M288.849304,293.349762 
	C283.780792,298.645569 278.646271,303.879974 273.654144,309.246826 
	C229.754028,356.442444 192.770645,408.564331 162.963089,465.704559 
	C115.888023,555.946106 89.107826,651.885559 82.741631,753.505737 
	C76.915031,846.512573 88.243111,937.346985 117.640404,1025.791748 
	C155.437927,1139.509521 217.975342,1237.659180 304.476593,1320.531006 
	C352.000610,1366.060913 404.864746,1404.290771 462.973450,1435.193726 
	C555.616638,1484.462891 654.334412,1512.145264 759.106323,1518.296021 
	C828.925720,1522.394897 897.980347,1516.905518 965.990845,1500.730591 
	C1104.538818,1467.779541 1223.219482,1399.723511 1322.006592,1297.152100 
	C1370.843872,1246.443970 1411.213745,1189.611450 1443.194458,1126.888916 
	C1496.910767,1021.537231 1522.885254,909.619873 1521.801025,791.436646 
	C1521.155029,721.044373 1510.432007,652.172485 1489.417603,584.952332 
	C1458.520630,486.120392 1408.564209,398.045197 1339.809326,320.658173 
	C1282.951660,256.661926 1216.769531,204.368774 1141.302612,163.972549 
	C1057.844727,119.298859 968.970825,92.230316 874.746216,82.672073 
	C824.157654,77.540321 773.603455,77.694214 723.090271,83.149124 
	C669.785095,88.905548 617.722900,100.446533 567.036865,118.015755 
	C460.940247,154.791901 368.460175,213.206680 288.849304,293.349762 
z"/>
<path fill="#6EB721" opacity="1.000000" stroke="none" 
	d="
M289.098877,293.099243 
	C368.460175,213.206680 460.940247,154.791901 567.036865,118.015755 
	C617.722900,100.446533 669.785095,88.905548 723.090271,83.149124 
	C773.603455,77.694214 824.157654,77.540321 874.746216,82.672073 
	C968.970825,92.230316 1057.844727,119.298859 1141.302612,163.972549 
	C1216.769531,204.368774 1282.951660,256.661926 1339.809326,320.658173 
	C1408.564209,398.045197 1458.520630,486.120392 1489.417603,584.952332 
	C1510.432007,652.172485 1521.155029,721.044373 1521.801025,791.436646 
	C1522.885254,909.619873 1496.910767,1021.537231 1443.194458,1126.888916 
	C1411.213745,1189.611450 1370.843872,1246.443970 1322.006592,1297.152100 
	C1223.219482,1399.723511 1104.538818,1467.779541 965.990845,1500.730591 
	C897.980347,1516.905518 828.925720,1522.394897 759.106323,1518.296021 
	C654.334412,1512.145264 555.616638,1484.462891 462.973450,1435.193726 
	C404.864746,1404.290771 352.000610,1366.060913 304.476593,1320.531006 
	C217.975342,1237.659180 155.437927,1139.509521 117.640404,1025.791748 
	C88.243111,937.346985 76.915031,846.512573 82.741631,753.505737 
	C89.107826,651.885559 115.888023,555.946106 162.963089,465.704559 
	C192.770645,408.564331 229.754028,356.442444 273.654144,309.246826 
	C278.646271,303.879974 283.780792,298.645569 289.098877,293.099243 
M538.399902,1342.558350 
	C538.399902,1342.558350 538.138855,1342.646729 538.138855,1342.646729 
	C538.138855,1342.646729 538.345886,1342.455688 537.869812,1343.118774 
	C538.676758,1344.717773 539.335571,1346.414307 540.313660,1347.900635 
	C549.181946,1361.377319 558.136475,1374.797119 566.998962,1388.277588 
	C570.692871,1393.896118 568.480774,1398.415894 561.675720,1398.296143 
	C536.116577,1397.846069 515.712036,1386.393066 499.314270,1367.512207 
	C496.343475,1364.091431 494.702759,1358.942749 493.869965,1354.334839 
	C489.727051,1331.410889 509.570038,1304.308594 532.537476,1301.192017 
	C542.016663,1299.905762 551.199524,1301.675171 559.852722,1305.533325 
	C590.049133,1318.996216 612.768738,1340.819580 629.789612,1368.853638 
	C632.839905,1373.877686 635.478210,1379.151855 638.611511,1384.866333 
	C646.916443,1368.047485 654.913086,1351.853027 663.002747,1335.469971 
	C657.591858,1335.469971 652.567688,1334.867920 647.750854,1335.610718 
	C640.476746,1336.732300 634.905640,1335.392090 631.128235,1328.535767 
	C629.880005,1326.270020 627.668457,1324.499756 625.769897,1322.632690 
	C595.887146,1293.244507 560.023621,1275.475830 518.927307,1268.179688 
	C497.645538,1264.401245 476.493774,1264.299072 456.037903,1272.773071 
	C430.012543,1283.554199 420.366730,1305.875732 430.314362,1332.145142 
	C438.187927,1352.937378 452.496826,1368.779663 469.557556,1382.241699 
	C502.147797,1407.957275 539.461243,1423.041992 580.215271,1429.898560 
	C585.030090,1430.708618 588.747986,1432.160767 591.685974,1436.478149 
	C596.086670,1442.944824 601.285095,1448.868774 606.471497,1455.438110 
	C612.203186,1443.917725 617.423706,1433.135742 622.991150,1422.536011 
	C623.857788,1420.885986 626.176086,1419.341187 628.050720,1419.000488 
	C633.773865,1417.960449 639.609802,1417.545898 645.398804,1416.862671 
	C656.081970,1415.602051 666.762939,1414.323486 678.757629,1412.896240 
	C676.035034,1411.436157 674.500000,1410.558228 672.918884,1409.773071 
	C634.928894,1390.906738 596.923462,1372.071289 558.949463,1353.172729 
	C551.981201,1349.704956 545.136719,1345.988525 538.399902,1342.558350 
M1364.229248,438.876099 
	C1364.082642,438.827911 1363.936157,438.779694 1363.789551,438.731445 
	C1363.856201,438.822876 1363.922852,438.914337 1363.734253,439.912842 
	C1364.141846,452.401062 1363.929321,464.950317 1365.150391,477.358521 
	C1366.157104,487.591400 1364.512817,495.432617 1354.196167,499.852203 
	C1351.045776,501.201782 1348.382690,503.687866 1345.493896,505.649536 
	C1341.745361,508.195038 1337.994263,510.736786 1333.441040,513.824951 
	C1333.855103,509.817719 1334.111938,507.013916 1334.438965,504.218384 
	C1337.942139,474.282074 1341.516724,444.353790 1344.851318,414.398773 
	C1345.113647,412.041718 1344.335693,409.090790 1343.007446,407.108765 
	C1329.851074,387.477875 1316.483032,367.988739 1303.160889,348.469025 
	C1296.372559,338.522736 1289.555908,328.595856 1282.072021,317.667145 
	C1281.948853,319.898560 1281.827759,320.836212 1281.855957,321.769379 
	C1282.314209,336.924255 1282.672363,352.083893 1283.352173,367.229065 
	C1283.512451,370.801361 1282.562744,373.013733 1279.560669,375.022522 
	C1263.380493,385.849854 1247.275391,396.792603 1231.284058,407.896698 
	C1228.583008,409.772247 1226.491089,409.885101 1223.596680,408.590546 
	C1212.674316,403.705505 1201.590820,399.178436 1190.699707,394.227234 
	C1188.484741,393.220337 1186.245239,391.299072 1185.038574,389.209473 
	C1179.632690,379.848053 1174.793945,370.158264 1169.353394,360.818237 
	C1166.007690,355.074677 1164.081665,349.208862 1163.635620,342.519104 
	C1162.938232,332.060852 1161.447021,321.656525 1160.337891,311.224426 
	C1158.600098,294.879486 1156.900635,278.530457 1155.148926,261.840302 
	C1167.502319,260.100098 1179.528564,258.405975 1192.950562,256.515259 
	C1149.003174,231.555023 1106.375977,207.344543 1062.607056,182.485611 
	C1067.707275,194.920319 1072.232178,205.952103 1076.897095,217.325180 
	C1074.559326,218.461716 1072.510376,219.487564 1070.437012,220.461029 
	C1051.468506,229.367111 1032.273560,237.827240 1013.600647,247.314621 
	C1000.773987,253.831589 987.531494,257.821289 973.297424,259.275208 
	C965.318054,260.090210 957.425110,261.751129 948.061951,263.261810 
	C982.774475,282.979004 1016.210632,301.971222 1050.940063,321.698029 
	C1043.782715,307.046570 1037.278198,293.731812 1030.805786,280.482666 
	C1039.310791,275.143188 1039.296753,275.167847 1047.119873,279.620514 
	C1063.601440,289.001404 1079.880371,298.775482 1096.700439,307.505859 
	C1103.235352,310.897736 1104.101685,315.377869 1103.534302,322.548401 
	C1087.263306,322.548401 1071.027710,322.548401 1054.792114,322.548401 
	C1056.043823,324.543274 1057.321289,325.291046 1058.607910,326.022797 
	C1098.373657,348.637695 1138.162109,371.213226 1177.859985,393.946503 
	C1180.617310,395.525482 1183.222412,397.918732 1185.023315,400.535492 
	C1205.309937,430.009491 1225.422974,459.603058 1245.592285,489.157898 
	C1246.809692,490.941742 1248.109253,492.669556 1248.791870,493.618835 
	C1248.791870,477.627960 1248.758301,461.314423 1248.842163,445.001556 
	C1248.850830,443.315033 1248.980347,440.821381 1250.030518,440.072723 
	C1260.684570,432.478210 1271.541870,425.168732 1282.984131,417.340057 
	C1282.984131,419.338196 1283.113770,420.450867 1282.965088,421.525055 
	C1278.491577,453.848450 1273.922974,486.159058 1269.619263,518.504944 
	C1269.266235,521.158569 1269.941528,524.541687 1271.402710,526.749207 
	C1281.965820,542.705627 1292.848755,558.450562 1303.652954,574.246948 
	C1304.371704,575.297852 1305.276367,576.221680 1306.173828,577.299866 
	C1328.989136,561.742798 1351.926270,546.915527 1373.874878,530.746277 
	C1382.972656,524.043945 1390.165894,523.060181 1400.068848,528.417358 
	C1411.360474,534.525940 1423.636963,538.814026 1436.467285,544.314148 
	C1435.468994,542.606323 1435.108521,541.894165 1434.662476,541.240479 
	C1411.870972,507.838287 1389.076904,474.437805 1366.246460,441.062286 
	C1365.684326,440.240601 1364.709961,439.700958 1364.229248,438.876099 
M706.837219,1286.708130 
	C707.664185,1286.809326 708.500122,1286.863159 709.316772,1287.018555 
	C769.895081,1298.542847 830.655762,1299.120117 891.139832,1287.503662 
	C1026.422485,1261.521606 1133.797119,1191.673096 1212.307861,1078.577515 
	C1264.365723,1003.587524 1292.395264,919.853760 1298.033081,828.663391 
	C1301.900391,766.110962 1294.666870,704.894470 1275.067627,645.386353 
	C1237.805298,532.248535 1169.225464,442.764404 1068.795410,378.751923 
	C959.727295,309.233734 840.473450,286.130585 713.410706,308.682678 
	C591.002502,330.408630 490.018372,390.685272 412.876526,488.156250 
	C319.272278,606.428040 286.601349,741.237671 312.643433,889.503906 
	C329.458801,985.239136 372.753876,1068.541138 439.477020,1139.184937 
	C512.538757,1216.539917 601.624756,1265.512817 706.837219,1286.708130 
M1205.661865,1312.003540 
	C1203.671143,1311.830444 1201.645996,1311.337280 1199.696289,1311.546387 
	C1194.550171,1312.098145 1192.232544,1309.322266 1190.018799,1305.101440 
	C1181.210815,1288.308716 1172.103516,1271.670776 1162.911255,1255.084229 
	C1161.493164,1252.525269 1161.613037,1250.684082 1162.974976,1248.280151 
	C1170.354004,1235.255615 1177.603638,1222.157837 1184.884644,1209.077759 
	C1185.692383,1207.626587 1186.415894,1206.128418 1187.721436,1203.601074 
	C1179.894165,1207.844360 1173.320068,1211.406860 1166.747437,1214.971802 
	C1133.555420,1232.975220 1100.364624,1250.981323 1067.168945,1268.978149 
	C1064.828491,1270.247070 1062.714722,1271.172485 1063.200073,1274.826050 
	C1064.646484,1285.716797 1065.631836,1296.669678 1066.750000,1307.603027 
	C1067.583618,1315.753418 1068.343750,1323.911255 1069.233276,1333.060669 
	C1067.487793,1331.797363 1066.697266,1331.258911 1065.942749,1330.673950 
	C1051.730103,1319.660767 1037.454224,1308.727295 1023.370117,1297.552002 
	C1020.587585,1295.344238 1018.576050,1295.294312 1015.540588,1296.956055 
	C985.190308,1313.572021 954.773193,1330.066650 924.312378,1346.479492 
	C921.926270,1347.765259 919.064514,1348.905762 916.433533,1348.884766 
	C892.443481,1348.693726 868.456116,1348.196777 844.466858,1347.863770 
	C836.238342,1347.749512 828.006836,1347.845703 818.760742,1347.845703 
	C829.463562,1355.250122 839.356995,1362.094482 847.564941,1367.772949 
	C837.180603,1379.062378 826.960999,1390.172852 816.639893,1401.393555 
	C805.401978,1390.812134 794.642639,1380.681274 783.529785,1370.217651 
	C794.010132,1362.715088 804.133545,1355.467896 815.405823,1347.398438 
	C765.287048,1346.665405 716.780029,1345.955933 668.272949,1345.246582 
	C673.108887,1349.060059 678.292847,1351.877319 683.337585,1354.925171 
	C692.700012,1360.581543 703.051270,1365.177490 711.072205,1372.357910 
	C727.562622,1387.120728 742.487610,1403.618286 758.681335,1418.733032 
	C765.214172,1424.830566 768.439941,1431.041992 767.254883,1439.925049 
	C766.854492,1442.926270 765.971130,1444.638550 763.448730,1446.150879 
	C753.033630,1452.395874 742.728333,1458.823975 732.390259,1465.197266 
	C728.806396,1467.406494 725.244873,1469.651978 721.673096,1471.880981 
	C721.797119,1472.200684 721.921143,1472.520386 722.045105,1472.840210 
	C773.293213,1473.595825 824.541260,1474.351440 875.789307,1475.107056 
	C863.430786,1465.848511 851.139404,1457.303589 838.381775,1449.523193 
	C832.969604,1446.222412 831.202698,1442.575928 831.427307,1436.332520 
	C831.636658,1430.512085 833.314514,1426.568848 837.756348,1422.756470 
	C846.850220,1414.951294 855.508179,1406.617554 864.085449,1398.235229 
	C879.484985,1383.185791 895.328491,1368.765625 915.120850,1359.556152 
	C916.986877,1358.687744 919.183960,1357.926025 921.177124,1358.034790 
	C933.151306,1358.687744 945.121643,1359.491089 957.063538,1360.572021 
	C958.810425,1360.730103 961.097534,1362.250854 961.953796,1363.795654 
	C971.711548,1381.400146 981.310974,1399.094238 990.711853,1416.891479 
	C991.588440,1418.550903 991.555298,1421.458130 990.689941,1423.140869 
	C986.357544,1431.565308 981.595886,1439.768555 977.006714,1448.061523 
	C973.525085,1454.352905 970.075684,1460.661987 966.611938,1466.963257 
	C966.855408,1467.144165 967.098877,1467.325073 967.342285,1467.506104 
	C1003.336609,1447.961792 1039.330933,1428.417603 1075.325195,1408.873291 
	C1059.629639,1406.405884 1044.248535,1404.703979 1028.836426,1403.354370 
	C1025.434082,1403.056274 1023.557983,1401.895264 1021.968811,1398.889038 
	C1014.739990,1385.214355 1007.247192,1371.679199 999.876831,1358.078979 
	C995.986755,1350.900879 992.152893,1343.692383 988.293640,1336.497559 
	C989.801575,1336.590576 990.616516,1337.134521 991.389893,1337.732300 
	C1019.709656,1359.621704 1048.050781,1381.483887 1076.301025,1403.462646 
	C1078.987549,1405.552856 1081.003662,1406.110352 1084.154419,1404.210815 
	C1090.841187,1400.178955 1097.669189,1396.294800 1104.758911,1393.047974 
	C1109.445190,1390.901855 1110.160767,1388.072876 1109.671997,1383.339966 
	C1105.959839,1347.393066 1102.522705,1311.417603 1099.030518,1275.448120 
	C1098.919312,1274.301758 1099.139648,1273.123169 1099.272583,1270.769287 
	C1112.037476,1294.295044 1124.219116,1316.615479 1136.165649,1339.060913 
	C1136.952271,1340.538818 1136.515747,1343.262329 1135.678833,1344.915649 
	C1129.069702,1357.972412 1122.216431,1370.905518 1115.467529,1383.891846 
	C1114.923950,1384.937866 1114.598511,1386.097412 1113.872925,1387.978394 
	C1158.819580,1363.581177 1202.916504,1339.645142 1247.013550,1315.709106 
	C1246.948608,1315.407959 1246.883667,1315.106812 1246.818726,1314.805786 
	C1233.411133,1313.879639 1220.003540,1312.953491 1205.661865,1312.003540 
M251.389679,569.910706 
	C259.984283,561.599548 269.799835,554.211426 276.923615,544.788330 
	C292.566711,524.096130 306.824860,502.358154 321.710449,481.090576 
	C323.896881,477.966797 326.197876,474.859772 328.858765,472.150513 
	C331.196777,469.770111 334.590759,467.265564 337.581421,470.011719 
	C339.475708,471.751160 340.533173,475.552917 340.248596,478.248505 
	C339.805145,482.448792 338.290741,486.667267 336.555603,490.578766 
	C325.030762,516.559326 307.972961,538.447693 286.986847,557.480774 
	C272.804779,570.343079 257.299530,580.517822 238.053421,583.891907 
	C237.661240,583.960632 237.311050,584.268799 236.449265,584.726624 
	C254.676407,595.167786 272.520264,605.389343 290.801514,615.861511 
	C292.534912,605.669617 293.957397,595.958740 295.952972,586.367126 
	C296.578003,583.362976 298.133484,580.046204 300.302856,577.947144 
	C324.574341,554.462097 345.071747,528.240662 359.336426,497.461975 
	C366.624115,481.737427 371.695892,465.483124 369.945679,447.772491 
	C368.235321,430.464874 358.246002,418.331818 342.768646,415.672089 
	C331.522705,413.739502 321.386139,417.523956 311.848816,423.077576 
	C297.650635,431.345215 287.937500,444.176147 278.495728,457.055115 
	C263.543549,477.450470 249.154053,498.257538 234.403336,518.802002 
	C231.997025,522.153442 229.343689,525.582275 226.067703,527.960266 
	C224.060501,529.417297 220.087036,530.039917 218.043228,528.993347 
	C216.335083,528.118591 215.293976,524.206421 215.489075,521.761597 
	C215.772797,518.205994 217.110413,514.620300 218.555679,511.289185 
	C233.572556,476.677368 257.299255,449.467163 288.977814,429.143280 
	C294.509460,425.594360 300.373901,422.564209 306.746124,418.915741 
	C291.055450,409.948120 275.924561,401.300446 260.449341,392.455963 
	C257.964630,403.374054 255.930908,413.496063 253.244461,423.441772 
	C252.359573,426.717834 250.422455,430.280792 247.886673,432.450745 
	C224.705185,452.287964 208.655701,477.103455 197.031265,504.936615 
	C191.498337,518.184509 187.322388,531.860107 189.022339,546.634277 
	C191.081436,564.529907 204.351929,578.859741 221.188110,580.421387 
	C232.415604,581.462769 241.886108,576.501831 251.389679,569.910706 
M433.238678,358.740448 
	C446.454163,349.180023 459.957886,339.984985 472.753479,329.892242 
	C478.442291,325.405151 482.977753,325.915924 488.614990,329.681000 
	C482.129425,344.589081 475.610718,359.573273 469.092041,374.557465 
	C469.328522,374.736847 469.565002,374.916260 469.801483,375.095642 
	C511.926697,344.643097 554.051941,314.190521 596.177185,283.737976 
	C580.962219,283.682709 566.347412,284.681183 551.747742,285.865784 
	C545.547058,286.368896 539.656860,286.020721 533.618713,283.930023 
	C509.716553,275.653809 485.671112,267.791595 461.685181,259.756866 
	C459.696259,259.090607 457.755096,258.281799 455.574432,257.457001 
	C459.157013,245.491318 462.623047,233.914902 466.480530,221.031052 
	C425.637451,250.550354 385.902283,279.268921 346.167114,307.987457 
	C346.325653,308.589264 346.484161,309.191040 346.642700,309.792847 
	C358.528534,309.792847 370.414398,309.792847 382.746826,309.792847 
	C382.746826,312.718994 382.731995,314.523102 382.749084,316.326874 
	C382.965118,339.153625 382.898590,361.988342 383.532379,384.803558 
	C383.827545,395.429016 382.765991,405.602478 379.485199,415.725464 
	C376.302490,425.545776 373.862213,435.606720 370.792572,446.653412 
	C403.055725,423.326355 434.298553,400.737000 465.947113,377.854279 
	C450.335022,377.854279 435.714752,377.854279 421.026825,377.854279 
	C418.864838,369.508575 419.041840,368.976898 425.765564,364.108582 
	C428.056793,362.449677 430.351501,360.795593 433.238678,358.740448 
M950.391418,176.878098 
	C959.111328,172.138992 967.738892,167.218552 976.578979,162.715439 
	C984.311829,158.776398 992.283691,155.306641 1000.150024,151.629578 
	C1000.080261,151.317261 1000.010437,151.004929 999.940674,150.692612 
	C963.026306,146.783340 926.112000,142.874084 889.197632,138.964813 
	C889.104370,139.263626 889.011108,139.562439 888.917786,139.861267 
	C898.130554,147.559494 907.343384,155.257736 916.821106,163.177399 
	C904.643311,173.129822 893.066040,182.591431 881.153076,192.327393 
	C871.119385,180.997742 861.227356,169.828079 851.067200,158.355667 
	C862.149414,151.838669 872.883911,145.526138 884.845154,138.492203 
	C835.035889,133.216248 786.844666,128.111679 738.653442,123.007111 
	C744.791077,128.492798 751.324646,132.954590 757.740417,137.579895 
	C764.605286,142.528976 772.412598,146.684387 777.959167,152.849960 
	C793.205078,169.797150 807.094849,187.964096 822.335754,204.916092 
	C828.333374,211.587067 830.365356,217.980362 828.458191,226.412247 
	C827.848267,229.108704 827.140869,230.846832 824.527588,232.034973 
	C818.489441,234.780182 812.583496,237.817490 806.638184,240.765228 
	C797.756226,245.168930 788.886658,249.597473 780.011780,254.015457 
	C780.081238,254.325089 780.150696,254.634735 780.220093,254.944366 
	C831.224060,260.349548 882.227966,265.754730 933.231873,271.159912 
	C932.523682,269.359161 931.481262,268.393982 930.374634,267.509186 
	C920.623474,259.713287 910.878296,251.909927 901.097046,244.152039 
	C891.494629,236.536026 891.372009,236.540131 893.453613,224.453674 
	C893.807068,222.401245 895.043640,220.001923 896.643066,218.739639 
	C914.282288,204.818558 932.074036,191.090775 950.391418,176.878098 
M732.527710,259.994659 
	C734.666748,259.423950 736.805847,258.853241 738.944885,258.282532 
	C723.055115,252.432846 707.330322,247.585297 691.698730,242.453796 
	C689.858582,241.849701 687.602112,239.948624 687.107422,238.203949 
	C681.573669,218.688202 676.266052,199.106293 671.178589,179.469452 
	C670.719421,177.697418 671.655701,174.953568 672.901489,173.459396 
	C677.481995,167.965500 682.473022,162.814438 687.296753,157.522720 
	C693.647278,150.556076 699.985657,143.578384 707.337646,135.497040 
	C656.524658,149.225983 607.158203,162.564087 557.791809,175.902191 
	C573.490967,181.668015 589.013062,186.595428 604.615784,191.253021 
	C607.921570,192.239853 609.375183,193.919388 610.234985,197.220642 
	C614.970337,215.402069 619.756592,233.576996 625.021423,251.609299 
	C626.441833,256.474243 625.441406,259.453705 622.097900,262.974792 
	C611.354675,274.288605 600.986633,285.958710 590.473877,297.491364 
	C590.612610,297.769073 590.751343,298.046753 590.890076,298.324463 
	C637.844482,285.617462 684.798950,272.910461 732.527710,259.994659 
z"/>
<path fill="#FEFEFE" opacity="1.000000" stroke="none" 
	d="
M706.422852,1286.606689 
	C601.624756,1265.512817 512.538757,1216.539917 439.477020,1139.184937 
	C372.753876,1068.541138 329.458801,985.239136 312.643433,889.503906 
	C286.601349,741.237671 319.272278,606.428040 412.876526,488.156250 
	C490.018372,390.685272 591.002502,330.408630 713.410706,308.682678 
	C840.473450,286.130585 959.727295,309.233734 1068.795410,378.751923 
	C1169.225464,442.764404 1237.805298,532.248535 1275.067627,645.386353 
	C1294.666870,704.894470 1301.900391,766.110962 1298.033081,828.663391 
	C1292.395264,919.853760 1264.365723,1003.587524 1212.307861,1078.577515 
	C1133.797119,1191.673096 1026.422485,1261.521606 891.139832,1287.503662 
	C830.655762,1299.120117 769.895081,1298.542847 709.316772,1287.018555 
	C708.500122,1286.863159 707.664185,1286.809326 706.422852,1286.606689 
M665.502808,1237.064331 
	C731.833984,1257.527222 799.423035,1262.562500 868.040466,1252.779663 
	C921.921692,1245.097900 972.898560,1228.203735 1020.646118,1201.989380 
	C1101.971069,1157.340698 1164.899780,1094.210449 1208.041992,1012.090332 
	C1257.485474,917.976013 1272.155884,818.137451 1253.054565,713.632263 
	C1237.239624,627.107788 1199.087280,551.285339 1139.298584,486.904022 
	C1064.018188,405.841064 971.238770,357.588043 861.433411,342.693420 
	C809.955627,335.710602 758.650146,337.503845 707.876221,348.291626 
	C608.802551,369.341492 525.239441,417.712769 457.940460,493.395599 
	C393.900177,565.413818 356.411255,649.714905 345.154938,745.400940 
	C338.007812,806.156006 342.883820,866.144592 359.917938,924.975952 
	C385.382690,1012.924438 433.087585,1086.769653 502.213684,1146.624023 
	C550.009705,1188.009033 604.372192,1217.923218 665.502808,1237.064331 
z"/>
<path fill="#FDFEFD" opacity="1.000000" stroke="none" 
	d="
M1206.128906,1312.015381 
	C1220.003540,1312.953491 1233.411133,1313.879639 1246.818726,1314.805786 
	C1246.883667,1315.106812 1246.948608,1315.407959 1247.013550,1315.709106 
	C1202.916504,1339.645142 1158.819580,1363.581177 1113.872925,1387.978394 
	C1114.598511,1386.097412 1114.923950,1384.937866 1115.467529,1383.891846 
	C1122.216431,1370.905518 1129.069702,1357.972412 1135.678833,1344.915649 
	C1136.515747,1343.262329 1136.952271,1340.538818 1136.165649,1339.060913 
	C1124.219116,1316.615479 1112.037476,1294.295044 1099.272583,1270.769287 
	C1099.139648,1273.123169 1098.919312,1274.301758 1099.030518,1275.448120 
	C1102.522705,1311.417603 1105.959839,1347.393066 1109.671997,1383.339966 
	C1110.160767,1388.072876 1109.445190,1390.901855 1104.758911,1393.047974 
	C1097.669189,1396.294800 1090.841187,1400.178955 1084.154419,1404.210815 
	C1081.003662,1406.110352 1078.987549,1405.552856 1076.301025,1403.462646 
	C1048.050781,1381.483887 1019.709656,1359.621704 991.389893,1337.732300 
	C990.616516,1337.134521 989.801575,1336.590576 988.293640,1336.497559 
	C992.152893,1343.692383 995.986755,1350.900879 999.876831,1358.078979 
	C1007.247192,1371.679199 1014.739990,1385.214355 1021.968811,1398.889038 
	C1023.557983,1401.895264 1025.434082,1403.056274 1028.836426,1403.354370 
	C1044.248535,1404.703979 1059.629639,1406.405884 1075.325195,1408.873291 
	C1039.330933,1428.417603 1003.336609,1447.961792 967.342285,1467.506104 
	C967.098877,1467.325073 966.855408,1467.144165 966.611938,1466.963257 
	C970.075684,1460.661987 973.525085,1454.352905 977.006714,1448.061523 
	C981.595886,1439.768555 986.357544,1431.565308 990.689941,1423.140869 
	C991.555298,1421.458130 991.588440,1418.550903 990.711853,1416.891479 
	C981.310974,1399.094238 971.711548,1381.400146 961.953796,1363.795654 
	C961.097534,1362.250854 958.810425,1360.730103 957.063538,1360.572021 
	C945.121643,1359.491089 933.151306,1358.687744 921.177124,1358.034790 
	C919.183960,1357.926025 916.986877,1358.687744 915.120850,1359.556152 
	C895.328491,1368.765625 879.484985,1383.185791 864.085449,1398.235229 
	C855.508179,1406.617554 846.850220,1414.951294 837.756348,1422.756470 
	C833.314514,1426.568848 831.636658,1430.512085 831.427307,1436.332520 
	C831.202698,1442.575928 832.969604,1446.222412 838.381775,1449.523193 
	C851.139404,1457.303589 863.430786,1465.848511 875.789307,1475.107056 
	C824.541260,1474.351440 773.293213,1473.595825 722.045105,1472.840210 
	C721.921143,1472.520386 721.797119,1472.200684 721.673096,1471.880981 
	C725.244873,1469.651978 728.806396,1467.406494 732.390259,1465.197266 
	C742.728333,1458.823975 753.033630,1452.395874 763.448730,1446.150879 
	C765.971130,1444.638550 766.854492,1442.926270 767.254883,1439.925049 
	C768.439941,1431.041992 765.214172,1424.830566 758.681335,1418.733032 
	C742.487610,1403.618286 727.562622,1387.120728 711.072205,1372.357910 
	C703.051270,1365.177490 692.700012,1360.581543 683.337585,1354.925171 
	C678.292847,1351.877319 673.108887,1349.060059 668.272949,1345.246582 
	C716.780029,1345.955933 765.287048,1346.665405 815.405823,1347.398438 
	C804.133545,1355.467896 794.010132,1362.715088 783.529785,1370.217651 
	C794.642639,1380.681274 805.401978,1390.812134 816.639893,1401.393555 
	C826.960999,1390.172852 837.180603,1379.062378 847.564941,1367.772949 
	C839.356995,1362.094482 829.463562,1355.250122 818.760742,1347.845703 
	C828.006836,1347.845703 836.238342,1347.749512 844.466858,1347.863770 
	C868.456116,1348.196777 892.443481,1348.693726 916.433533,1348.884766 
	C919.064514,1348.905762 921.926270,1347.765259 924.312378,1346.479492 
	C954.773193,1330.066650 985.190308,1313.572021 1015.540588,1296.956055 
	C1018.576050,1295.294312 1020.587585,1295.344238 1023.370117,1297.552002 
	C1037.454224,1308.727295 1051.730103,1319.660767 1065.942749,1330.673950 
	C1066.697266,1331.258911 1067.487793,1331.797363 1069.233276,1333.060669 
	C1068.343750,1323.911255 1067.583618,1315.753418 1066.750000,1307.603027 
	C1065.631836,1296.669678 1064.646484,1285.716797 1063.200073,1274.826050 
	C1062.714722,1271.172485 1064.828491,1270.247070 1067.168945,1268.978149 
	C1100.364624,1250.981323 1133.555420,1232.975220 1166.747437,1214.971802 
	C1173.320068,1211.406860 1179.894165,1207.844360 1187.721436,1203.601074 
	C1186.415894,1206.128418 1185.692383,1207.626587 1184.884644,1209.077759 
	C1177.603638,1222.157837 1170.354004,1235.255615 1162.974976,1248.280151 
	C1161.613037,1250.684082 1161.493164,1252.525269 1162.911255,1255.084229 
	C1172.103516,1271.670776 1181.210815,1288.308716 1190.018799,1305.101440 
	C1192.232544,1309.322266 1194.550171,1312.098145 1199.696289,1311.546387 
	C1201.645996,1311.337280 1203.671143,1311.830444 1206.128906,1312.015381 
z"/>
<path fill="#FDFEFD" opacity="1.000000" stroke="none" 
	d="
M1363.927856,439.029785 
	C1364.709961,439.700958 1365.684326,440.240601 1366.246460,441.062286 
	C1389.076904,474.437805 1411.870972,507.838287 1434.662476,541.240479 
	C1435.108521,541.894165 1435.468994,542.606323 1436.467285,544.314148 
	C1423.636963,538.814026 1411.360474,534.525940 1400.068848,528.417358 
	C1390.165894,523.060181 1382.972656,524.043945 1373.874878,530.746277 
	C1351.926270,546.915527 1328.989136,561.742798 1306.173828,577.299866 
	C1305.276367,576.221680 1304.371704,575.297852 1303.652954,574.246948 
	C1292.848755,558.450562 1281.965820,542.705627 1271.402710,526.749207 
	C1269.941528,524.541687 1269.266235,521.158569 1269.619263,518.504944 
	C1273.922974,486.159058 1278.491577,453.848450 1282.965088,421.525055 
	C1283.113770,420.450867 1282.984131,419.338196 1282.984131,417.340057 
	C1271.541870,425.168732 1260.684570,432.478210 1250.030518,440.072723 
	C1248.980347,440.821381 1248.850830,443.315033 1248.842163,445.001556 
	C1248.758301,461.314423 1248.791870,477.627960 1248.791870,493.618835 
	C1248.109253,492.669556 1246.809692,490.941742 1245.592285,489.157898 
	C1225.422974,459.603058 1205.309937,430.009491 1185.023315,400.535492 
	C1183.222412,397.918732 1180.617310,395.525482 1177.859985,393.946503 
	C1138.162109,371.213226 1098.373657,348.637695 1058.607910,326.022797 
	C1057.321289,325.291046 1056.043823,324.543274 1054.792114,322.548401 
	C1071.027710,322.548401 1087.263306,322.548401 1103.534302,322.548401 
	C1104.101685,315.377869 1103.235352,310.897736 1096.700439,307.505859 
	C1079.880371,298.775482 1063.601440,289.001404 1047.119873,279.620514 
	C1039.296753,275.167847 1039.310791,275.143188 1030.805786,280.482666 
	C1037.278198,293.731812 1043.782715,307.046570 1050.940063,321.698029 
	C1016.210632,301.971222 982.774475,282.979004 948.061951,263.261810 
	C957.425110,261.751129 965.318054,260.090210 973.297424,259.275208 
	C987.531494,257.821289 1000.773987,253.831589 1013.600647,247.314621 
	C1032.273560,237.827240 1051.468506,229.367111 1070.437012,220.461029 
	C1072.510376,219.487564 1074.559326,218.461716 1076.897095,217.325180 
	C1072.232178,205.952103 1067.707275,194.920319 1062.607056,182.485611 
	C1106.375977,207.344543 1149.003174,231.555023 1192.950562,256.515259 
	C1179.528564,258.405975 1167.502319,260.100098 1155.148926,261.840302 
	C1156.900635,278.530457 1158.600098,294.879486 1160.337891,311.224426 
	C1161.447021,321.656525 1162.938232,332.060852 1163.635620,342.519104 
	C1164.081665,349.208862 1166.007690,355.074677 1169.353394,360.818237 
	C1174.793945,370.158264 1179.632690,379.848053 1185.038574,389.209473 
	C1186.245239,391.299072 1188.484741,393.220337 1190.699707,394.227234 
	C1201.590820,399.178436 1212.674316,403.705505 1223.596680,408.590546 
	C1226.491089,409.885101 1228.583008,409.772247 1231.284058,407.896698 
	C1247.275391,396.792603 1263.380493,385.849854 1279.560669,375.022522 
	C1282.562744,373.013733 1283.512451,370.801361 1283.352173,367.229065 
	C1282.672363,352.083893 1282.314209,336.924255 1281.855957,321.769379 
	C1281.827759,320.836212 1281.948853,319.898560 1282.072021,317.667145 
	C1289.555908,328.595856 1296.372559,338.522736 1303.160889,348.469025 
	C1316.483032,367.988739 1329.851074,387.477875 1343.007446,407.108765 
	C1344.335693,409.090790 1345.113647,412.041718 1344.851318,414.398773 
	C1341.516724,444.353790 1337.942139,474.282074 1334.438965,504.218384 
	C1334.111938,507.013916 1333.855103,509.817719 1333.441040,513.824951 
	C1337.994263,510.736786 1341.745361,508.195038 1345.493896,505.649536 
	C1348.382690,503.687866 1351.045776,501.201782 1354.196167,499.852203 
	C1364.512817,495.432617 1366.157104,487.591400 1365.150391,477.358521 
	C1363.929321,464.950317 1364.141846,452.401062 1363.848877,439.465820 
	C1363.963623,439.018829 1363.927856,439.029785 1363.927856,439.029785 
M1078.661621,273.828766 
	C1085.844849,277.889069 1093.028076,281.949371 1100.846313,286.368591 
	C1099.566162,272.104370 1098.361328,258.678558 1097.108521,244.718674 
	C1084.734375,251.169052 1073.113525,257.226807 1060.786011,263.652954 
	C1067.102905,267.235291 1072.570312,270.335846 1078.661621,273.828766 
z"/>
<path fill="#FDFEFD" opacity="1.000000" stroke="none" 
	d="
M251.094849,570.114624 
	C241.886108,576.501831 232.415604,581.462769 221.188110,580.421387 
	C204.351929,578.859741 191.081436,564.529907 189.022339,546.634277 
	C187.322388,531.860107 191.498337,518.184509 197.031265,504.936615 
	C208.655701,477.103455 224.705185,452.287964 247.886673,432.450745 
	C250.422455,430.280792 252.359573,426.717834 253.244461,423.441772 
	C255.930908,413.496063 257.964630,403.374054 260.449341,392.455963 
	C275.924561,401.300446 291.055450,409.948120 306.746124,418.915741 
	C300.373901,422.564209 294.509460,425.594360 288.977814,429.143280 
	C257.299255,449.467163 233.572556,476.677368 218.555679,511.289185 
	C217.110413,514.620300 215.772797,518.205994 215.489075,521.761597 
	C215.293976,524.206421 216.335083,528.118591 218.043228,528.993347 
	C220.087036,530.039917 224.060501,529.417297 226.067703,527.960266 
	C229.343689,525.582275 231.997025,522.153442 234.403336,518.802002 
	C249.154053,498.257538 263.543549,477.450470 278.495728,457.055115 
	C287.937500,444.176147 297.650635,431.345215 311.848816,423.077576 
	C321.386139,417.523956 331.522705,413.739502 342.768646,415.672089 
	C358.246002,418.331818 368.235321,430.464874 369.945679,447.772491 
	C371.695892,465.483124 366.624115,481.737427 359.336426,497.461975 
	C345.071747,528.240662 324.574341,554.462097 300.302856,577.947144 
	C298.133484,580.046204 296.578003,583.362976 295.952972,586.367126 
	C293.957397,595.958740 292.534912,605.669617 290.801514,615.861511 
	C272.520264,605.389343 254.676407,595.167786 236.449265,584.726624 
	C237.311050,584.268799 237.661240,583.960632 238.053421,583.891907 
	C257.299530,580.517822 272.804779,570.343079 286.986847,557.480774 
	C307.972961,538.447693 325.030762,516.559326 336.555603,490.578766 
	C338.290741,486.667267 339.805145,482.448792 340.248596,478.248505 
	C340.533173,475.552917 339.475708,471.751160 337.581421,470.011719 
	C334.590759,467.265564 331.196777,469.770111 328.858765,472.150513 
	C326.197876,474.859772 323.896881,477.966797 321.710449,481.090576 
	C306.824860,502.358154 292.566711,524.096130 276.923615,544.788330 
	C269.799835,554.211426 259.984283,561.599548 251.094849,570.114624 
z"/>
<path fill="#FDFEFD" opacity="1.000000" stroke="none" 
	d="
M538.235107,1342.386719 
	C545.136719,1345.988525 551.981201,1349.704956 558.949463,1353.172729 
	C596.923462,1372.071289 634.928894,1390.906738 672.918884,1409.773071 
	C674.500000,1410.558228 676.035034,1411.436157 678.757629,1412.896240 
	C666.762939,1414.323486 656.081970,1415.602051 645.398804,1416.862671 
	C639.609802,1417.545898 633.773865,1417.960449 628.050720,1419.000488 
	C626.176086,1419.341187 623.857788,1420.885986 622.991150,1422.536011 
	C617.423706,1433.135742 612.203186,1443.917725 606.471497,1455.438110 
	C601.285095,1448.868774 596.086670,1442.944824 591.685974,1436.478149 
	C588.747986,1432.160767 585.030090,1430.708618 580.215271,1429.898560 
	C539.461243,1423.041992 502.147797,1407.957275 469.557556,1382.241699 
	C452.496826,1368.779663 438.187927,1352.937378 430.314362,1332.145142 
	C420.366730,1305.875732 430.012543,1283.554199 456.037903,1272.773071 
	C476.493774,1264.299072 497.645538,1264.401245 518.927307,1268.179688 
	C560.023621,1275.475830 595.887146,1293.244507 625.769897,1322.632690 
	C627.668457,1324.499756 629.880005,1326.270020 631.128235,1328.535767 
	C634.905640,1335.392090 640.476746,1336.732300 647.750854,1335.610718 
	C652.567688,1334.867920 657.591858,1335.469971 663.002747,1335.469971 
	C654.913086,1351.853027 646.916443,1368.047485 638.611511,1384.866333 
	C635.478210,1379.151855 632.839905,1373.877686 629.789612,1368.853638 
	C612.768738,1340.819580 590.049133,1318.996216 559.852722,1305.533325 
	C551.199524,1301.675171 542.016663,1299.905762 532.537476,1301.192017 
	C509.570038,1304.308594 489.727051,1331.410889 493.869965,1354.334839 
	C494.702759,1358.942749 496.343475,1364.091431 499.314270,1367.512207 
	C515.712036,1386.393066 536.116577,1397.846069 561.675720,1398.296143 
	C568.480774,1398.415894 570.692871,1393.896118 566.998962,1388.277588 
	C558.136475,1374.797119 549.181946,1361.377319 540.313660,1347.900635 
	C539.335571,1346.414307 538.676758,1344.717773 538.069641,1342.786865 
	C538.269470,1342.454956 538.235107,1342.386719 538.235107,1342.386719 
z"/>
<path fill="#FDFEFD" opacity="1.000000" stroke="none" 
	d="
M432.941650,358.939880 
	C430.351501,360.795593 428.056793,362.449677 425.765564,364.108582 
	C419.041840,368.976898 418.864838,369.508575 421.026825,377.854279 
	C435.714752,377.854279 450.335022,377.854279 465.947113,377.854279 
	C434.298553,400.737000 403.055725,423.326355 370.792572,446.653412 
	C373.862213,435.606720 376.302490,425.545776 379.485199,415.725464 
	C382.765991,405.602478 383.827545,395.429016 383.532379,384.803558 
	C382.898590,361.988342 382.965118,339.153625 382.749084,316.326874 
	C382.731995,314.523102 382.746826,312.718994 382.746826,309.792847 
	C370.414398,309.792847 358.528534,309.792847 346.642700,309.792847 
	C346.484161,309.191040 346.325653,308.589264 346.167114,307.987457 
	C385.902283,279.268921 425.637451,250.550354 466.480530,221.031052 
	C462.623047,233.914902 459.157013,245.491318 455.574432,257.457001 
	C457.755096,258.281799 459.696259,259.090607 461.685181,259.756866 
	C485.671112,267.791595 509.716553,275.653809 533.618713,283.930023 
	C539.656860,286.020721 545.547058,286.368896 551.747742,285.865784 
	C566.347412,284.681183 580.962219,283.682709 596.177185,283.737976 
	C554.051941,314.190521 511.926697,344.643097 469.801483,375.095642 
	C469.565002,374.916260 469.328522,374.736847 469.092041,374.557465 
	C475.610718,359.573273 482.129425,344.589081 488.614990,329.681000 
	C482.977753,325.915924 478.442291,325.405151 472.753479,329.892242 
	C459.957886,339.984985 446.454163,349.180023 432.941650,358.939880 
M444.074921,325.574707 
	C447.615173,322.945435 451.155457,320.316132 455.268036,317.261810 
	C441.821838,312.507385 429.136047,308.021851 415.836395,303.319244 
	C416.614380,317.458435 417.335205,330.558350 418.087372,344.227997 
	C427.051086,337.795715 435.273010,331.895752 444.074921,325.574707 
z"/>
<path fill="#FDFEFD" opacity="1.000000" stroke="none" 
	d="
M950.107910,177.094360 
	C932.074036,191.090775 914.282288,204.818558 896.643066,218.739639 
	C895.043640,220.001923 893.807068,222.401245 893.453613,224.453674 
	C891.372009,236.540131 891.494629,236.536026 901.097046,244.152039 
	C910.878296,251.909927 920.623474,259.713287 930.374634,267.509186 
	C931.481262,268.393982 932.523682,269.359161 933.231873,271.159912 
	C882.227966,265.754730 831.224060,260.349548 780.220093,254.944366 
	C780.150696,254.634735 780.081238,254.325089 780.011780,254.015457 
	C788.886658,249.597473 797.756226,245.168930 806.638184,240.765228 
	C812.583496,237.817490 818.489441,234.780182 824.527588,232.034973 
	C827.140869,230.846832 827.848267,229.108704 828.458191,226.412247 
	C830.365356,217.980362 828.333374,211.587067 822.335754,204.916092 
	C807.094849,187.964096 793.205078,169.797150 777.959167,152.849960 
	C772.412598,146.684387 764.605286,142.528976 757.740417,137.579895 
	C751.324646,132.954590 744.791077,128.492798 738.653442,123.007111 
	C786.844666,128.111679 835.035889,133.216248 884.845154,138.492203 
	C872.883911,145.526138 862.149414,151.838669 851.067200,158.355667 
	C861.227356,169.828079 871.119385,180.997742 881.153076,192.327393 
	C893.066040,182.591431 904.643311,173.129822 916.821106,163.177399 
	C907.343384,155.257736 898.130554,147.559494 888.917786,139.861267 
	C889.011108,139.562439 889.104370,139.263626 889.197632,138.964813 
	C926.112000,142.874084 963.026306,146.783340 999.940674,150.692612 
	C1000.010437,151.004929 1000.080261,151.317261 1000.150024,151.629578 
	C992.283691,155.306641 984.311829,158.776398 976.578979,162.715439 
	C967.738892,167.218552 959.111328,172.138992 950.107910,177.094360 
z"/>
<path fill="#FDFEFD" opacity="1.000000" stroke="none" 
	d="
M732.140503,260.099060 
	C684.798950,272.910461 637.844482,285.617462 590.890076,298.324463 
	C590.751343,298.046753 590.612610,297.769073 590.473877,297.491364 
	C600.986633,285.958710 611.354675,274.288605 622.097900,262.974792 
	C625.441406,259.453705 626.441833,256.474243 625.021423,251.609299 
	C619.756592,233.576996 614.970337,215.402069 610.234985,197.220642 
	C609.375183,193.919388 607.921570,192.239853 604.615784,191.253021 
	C589.013062,186.595428 573.490967,181.668015 557.791809,175.902191 
	C607.158203,162.564087 656.524658,149.225983 707.337646,135.497040 
	C699.985657,143.578384 693.647278,150.556076 687.296753,157.522720 
	C682.473022,162.814438 677.481995,167.965500 672.901489,173.459396 
	C671.655701,174.953568 670.719421,177.697418 671.178589,179.469452 
	C676.266052,199.106293 681.573669,218.688202 687.107422,238.203949 
	C687.602112,239.948624 689.858582,241.849701 691.698730,242.453796 
	C707.330322,247.585297 723.055115,252.432846 738.944885,258.282532 
	C736.805847,258.853241 734.666748,259.423950 732.140503,260.099060 
z"/>
<path fill="#FDFEFD" opacity="1.000000" stroke="none" 
	d="
M1363.976562,439.012299 
	C1363.922852,438.914337 1363.856201,438.822876 1363.789551,438.731445 
	C1363.936157,438.779694 1364.082642,438.827911 1364.078613,438.952942 
	C1363.927856,439.029785 1363.963623,439.018829 1363.976562,439.012299 
z"/>
<path fill="#FDFEFD" opacity="1.000000" stroke="none" 
	d="
M538.307678,1342.455322 
	C538.345886,1342.455688 538.138855,1342.646729 538.138855,1342.646729 
	C538.138855,1342.646729 538.399902,1342.558350 538.317505,1342.472534 
	C538.235107,1342.386719 538.269470,1342.454956 538.307678,1342.455322 
z"/>
<path fill="#6EB721" opacity="1.000000" stroke="none" 
	d="
M665.118042,1236.959717 
	C604.372192,1217.923218 550.009705,1188.009033 502.213684,1146.624023 
	C433.087585,1086.769653 385.382690,1012.924438 359.917938,924.975952 
	C342.883820,866.144592 338.007812,806.156006 345.154938,745.400940 
	C356.411255,649.714905 393.900177,565.413818 457.940460,493.395599 
	C525.239441,417.712769 608.802551,369.341492 707.876221,348.291626 
	C758.650146,337.503845 809.955627,335.710602 861.433411,342.693420 
	C971.238770,357.588043 1064.018188,405.841064 1139.298584,486.904022 
	C1199.087280,551.285339 1237.239624,627.107788 1253.054565,713.632263 
	C1272.155884,818.137451 1257.485474,917.976013 1208.041992,1012.090332 
	C1164.899780,1094.210449 1101.971069,1157.340698 1020.646118,1201.989380 
	C972.898560,1228.203735 921.921692,1245.097900 868.040466,1252.779663 
	C799.423035,1262.562500 731.833984,1257.527222 665.118042,1236.959717 
M701.909546,1236.628418 
	C713.502075,1238.902832 725.041565,1241.505127 736.696655,1243.393555 
	C781.225952,1250.608765 825.841064,1252.427246 870.393738,1243.789551 
	C882.722595,1241.399170 894.807800,1237.752686 908.418152,1234.326782 
	C904.840515,1226.354980 902.121094,1219.456787 898.683838,1212.937012 
	C896.466553,1208.731201 896.061401,1205.105591 898.120483,1200.757935 
	C904.845032,1186.559570 902.426270,1173.213745 893.446838,1160.856445 
	C891.562805,1158.263794 891.618469,1156.381714 893.008545,1153.725586 
	C895.676270,1148.627930 899.349426,1143.688965 897.731812,1137.369751 
	C896.540527,1132.716187 895.082214,1128.131714 893.823364,1123.494629 
	C893.451172,1122.123657 892.788635,1120.466431 893.225708,1119.303467 
	C895.247925,1113.923096 897.610596,1108.670654 900.052185,1102.897217 
	C902.063049,1104.624878 904.225281,1106.482544 907.763123,1109.522095 
	C904.639526,1111.378540 902.196472,1112.830444 899.753357,1114.282349 
	C899.966919,1115.004028 900.180420,1115.725586 900.393921,1116.447266 
	C902.874023,1117.082520 905.361572,1117.690186 907.830872,1118.365112 
	C909.001465,1118.685059 910.743042,1118.793213 911.185791,1119.581543 
	C913.352478,1123.439941 915.182983,1127.488281 917.102051,1131.484009 
	C917.896912,1133.138916 918.615906,1134.830200 919.369385,1136.505005 
	C920.996643,1135.241333 922.974243,1134.235840 924.150208,1132.639648 
	C925.268250,1131.121948 925.641724,1129.013062 926.174438,1127.116943 
	C926.922607,1124.453735 927.190247,1121.613770 928.227356,1119.080200 
	C935.006348,1102.519531 946.262756,1088.984985 957.384705,1075.232178 
	C968.239685,1061.809448 978.153442,1047.616577 988.277466,1033.615112 
	C994.713074,1024.714600 993.207153,1015.880127 987.262451,1007.290039 
	C985.010803,1004.036316 982.982788,1000.627869 980.856384,997.295471 
	C983.975647,996.456299 986.726257,995.716309 989.636658,994.933289 
	C992.234009,1000.287903 994.804688,1005.587585 997.409546,1010.957642 
	C1003.343506,1008.207275 1008.701416,1005.723938 1014.329285,1003.115417 
	C1017.154785,1008.928650 1019.752136,1014.272400 1022.474365,1019.873108 
	C1030.967407,1015.873535 1039.186279,1012.002991 1047.879395,1007.909241 
	C1051.941040,1016.380920 1055.856201,1024.547241 1059.870605,1032.920532 
	C1071.425537,1027.417603 1082.491089,1022.147766 1093.795288,1016.764282 
	C1085.787598,999.873779 1077.971680,983.387634 1070.038330,966.653992 
	C1072.225830,965.546875 1074.291870,963.550720 1075.958130,963.842041 
	C1080.378662,964.614807 1084.675415,966.241150 1088.926392,967.789062 
	C1091.925537,968.881165 1094.404785,968.996948 1096.331665,965.997925 
	C1097.217041,964.619873 1098.275269,963.352783 1099.291382,961.986694 
	C1105.337402,969.374084 1117.241577,968.544373 1122.456665,960.243408 
	C1128.793701,962.302307 1136.035767,960.172668 1138.813599,954.053406 
	C1140.694214,949.910400 1143.937012,949.578491 1147.066772,947.993713 
	C1149.559570,946.731689 1153.347656,944.550049 1153.420288,942.656128 
	C1153.616577,937.544556 1152.269653,932.341736 1151.239380,927.234741 
	C1150.929077,925.696106 1149.649414,924.352905 1148.813843,922.920227 
	C1149.080688,922.578918 1149.347656,922.237671 1149.614624,921.896362 
	C1152.310303,926.428406 1155.764038,926.386780 1159.709839,923.784424 
	C1167.771240,940.673401 1175.685547,957.254517 1183.685913,974.015930 
	C1195.251465,968.557068 1206.295776,963.344177 1217.510010,958.051025 
	C1213.404297,949.312866 1209.611206,941.240295 1205.648804,932.807312 
	C1214.299072,928.667358 1222.593140,924.697876 1231.033325,920.658386 
	C1228.216797,914.577332 1225.733032,909.214600 1223.153198,903.644409 
	C1228.966309,900.845276 1234.327148,898.263916 1239.896851,895.581970 
	C1237.294434,889.934753 1234.826660,884.580017 1232.392578,879.298035 
	C1239.744873,874.585144 1240.429321,872.731262 1237.449707,866.402466 
	C1234.462524,860.058228 1232.041138,859.190613 1223.996582,861.817932 
	C1222.047729,857.673035 1219.844727,853.572510 1218.180908,849.263733 
	C1216.846680,845.808899 1215.088623,845.536499 1212.094849,847.119568 
	C1207.914185,849.330200 1203.588501,851.266907 1199.218384,853.372192 
	C1196.286621,847.452515 1193.663696,842.156494 1191.011108,836.800415 
	C1182.275513,840.902161 1174.064087,844.757751 1165.723999,848.673828 
	C1161.574707,840.104248 1157.685791,832.072205 1153.674316,823.786987 
	C1142.104736,829.300049 1131.056885,834.564392 1119.763184,839.945923 
	C1127.764404,856.824890 1135.554077,873.257874 1143.548096,890.121704 
	C1137.735474,891.221436 1138.124268,895.103760 1138.863403,899.087036 
	C1133.770996,898.616455 1129.953125,897.246155 1126.853271,893.268311 
	C1125.155762,891.089905 1121.742310,889.000671 1119.118896,889.020386 
	C1110.446655,889.085693 1102.871338,886.375610 1095.482056,882.257812 
	C1089.837158,879.111938 1083.882935,876.523193 1078.207764,873.427429 
	C1077.111328,872.829285 1075.845215,870.861084 1076.060913,869.814209 
	C1077.350708,863.557373 1075.770508,858.460571 1071.315552,853.886719 
	C1069.513306,852.036377 1068.130981,849.519897 1067.265991,847.057678 
	C1063.311157,835.798462 1059.654541,824.434753 1055.770752,813.149963 
	C1055.052002,811.061768 1053.939575,809.058228 1052.715210,807.210205 
	C1051.632202,805.575317 1049.502197,804.421143 1048.934326,802.693237 
	C1045.775391,793.083557 1040.239868,785.655029 1031.153198,780.832153 
	C1027.056396,778.657837 1023.271057,775.844482 1019.520874,773.081604 
	C1013.104126,768.354065 1008.238892,762.896545 1009.752380,753.887207 
	C1010.949097,746.763062 1007.844360,740.697021 1004.255493,734.663086 
	C1001.864136,730.642700 999.795166,730.273560 995.914185,732.394470 
	C977.345154,742.541687 958.377808,751.846985 938.239197,758.561584 
	C936.465515,759.152954 934.844055,760.200623 933.288879,760.968689 
	C934.378052,763.147949 935.538147,764.697571 935.956116,766.426636 
	C939.501221,781.092102 949.005188,790.290710 962.568359,795.861267 
	C963.181519,796.113159 963.772583,796.436523 964.336914,796.786377 
	C968.102722,799.120605 969.993591,801.980530 969.963074,806.942749 
	C969.865234,822.841187 972.010254,838.031677 988.244446,846.552795 
	C989.258484,847.085083 990.192993,847.879761 990.964417,848.733215 
	C991.799988,849.657715 992.453308,850.763367 993.094055,851.844543 
	C994.773132,854.677917 996.051880,857.828491 998.114258,860.340332 
	C1005.368591,869.175537 1012.885376,877.795227 1020.683838,886.943970 
	C1012.246033,890.995728 1004.352539,894.786072 996.101257,898.748230 
	C1000.072876,907.184326 1003.925232,915.367065 1007.972412,923.963684 
	C999.260620,928.135193 990.968628,932.105652 982.627258,936.099792 
	C985.304199,941.879333 987.664795,946.975952 990.257629,952.574036 
	C984.482971,955.427673 979.079773,958.097839 973.560486,960.825317 
	C976.346558,966.745483 978.859985,972.086243 980.982666,976.596619 
	C978.200500,979.606873 976.017517,981.968872 973.791931,984.376892 
	C971.380920,980.169556 968.535461,975.203979 966.419739,971.511902 
	C967.022522,964.096191 969.029175,957.289917 967.736145,951.182312 
	C965.732056,941.716553 961.338013,932.774109 958.231079,923.517944 
	C956.444824,918.196289 953.315247,914.637207 947.825378,913.117737 
	C944.004333,912.060181 942.111877,909.585938 941.158020,905.462585 
	C939.156067,896.809204 936.004395,888.216309 928.635437,882.758728 
	C920.790833,876.948792 912.449890,871.569702 903.689392,867.311707 
	C896.730835,863.929688 891.302795,859.818848 888.109680,852.791077 
	C887.357056,851.134644 886.273010,849.630066 885.358765,848.045654 
	C881.842834,841.952393 878.333923,835.855103 874.091248,828.490112 
	C877.011169,829.770996 878.487671,830.386963 879.937805,831.059875 
	C890.863708,836.129883 896.122253,834.426819 901.837341,823.745667 
	C904.029480,819.648560 905.916321,815.388794 907.967468,811.215393 
	C913.147705,800.675232 908.881897,786.907532 898.435425,781.458008 
	C893.642212,778.957458 888.506836,777.112732 883.289307,774.868530 
	C887.481323,767.202576 890.488953,757.963379 900.354248,753.705078 
	C908.748047,750.081787 915.117004,744.177002 917.623291,734.917908 
	C917.724426,734.544189 918.268372,734.290283 919.329956,733.316223 
	C921.994019,737.925415 924.495056,742.252502 927.338196,747.171509 
	C935.616638,742.890503 944.188843,738.289978 952.908569,733.988525 
	C965.221436,727.914551 977.613953,721.999390 990.034729,716.148682 
	C994.374268,714.104614 995.995789,710.820740 994.718079,706.436829 
	C992.957031,700.394165 990.546814,694.540405 988.794739,688.495544 
	C987.193848,682.972351 985.968750,677.328552 984.839294,671.685608 
	C984.321594,669.099243 984.998352,666.189514 984.154236,663.767700 
	C980.937744,654.539978 977.268982,645.471069 973.868103,636.306152 
	C968.612244,622.142029 957.847290,613.636902 944.405701,608.279419 
	C927.991943,601.737366 911.423279,603.408997 894.966431,608.554443 
	C888.502075,610.575562 882.023987,612.552551 874.598267,614.843994 
	C874.056824,600.506714 868.868652,588.651978 860.381409,577.954712 
	C873.942200,583.903076 882.754639,595.797729 894.754456,603.874329 
	C892.078552,587.617249 883.933105,573.635193 876.639771,559.319885 
	C876.952393,558.869629 877.264954,558.419373 877.577576,557.969116 
	C888.805786,563.353027 900.033997,568.736877 911.207886,574.094666 
	C907.185303,557.190369 896.900635,543.945496 881.763977,533.109741 
	C904.490723,527.727295 924.515137,519.649719 940.094116,501.860657 
	C938.691895,501.578979 938.085693,501.336060 937.487976,501.355377 
	C928.349304,501.650330 919.141602,501.385162 910.091980,502.453522 
	C899.182007,503.741516 892.511719,496.297516 883.102722,491.789886 
	C907.317078,485.084991 922.048767,468.120453 936.692932,450.904724 
	C916.543945,457.545502 896.007874,459.318054 874.934875,458.057404 
	C884.373657,449.887268 892.529907,441.003387 898.042114,429.971100 
	C903.537048,418.973145 906.484924,407.379578 906.683472,394.613953 
	C900.359863,402.467896 894.911316,410.032471 888.623657,416.819733 
	C882.350464,423.591461 874.853516,428.858459 863.898438,430.285187 
	C869.823486,421.000671 872.833496,412.012054 871.774902,402.317902 
	C870.768799,393.104828 868.836182,383.992920 867.310974,374.836548 
	C866.767822,374.864288 866.224731,374.892059 865.681641,374.919800 
	C857.855957,391.586548 851.137695,408.923920 837.544067,423.246063 
	C836.762512,397.719025 823.155151,372.956177 816.845215,364.635071 
	C818.787537,379.059021 819.208801,392.619385 813.096680,405.959412 
	C809.301514,401.410706 805.610474,396.876068 803.185974,391.743195 
	C796.928467,378.495392 800.325073,364.815125 802.884888,349.938110 
	C795.791992,356.819885 789.830200,363.004822 783.434143,368.702209 
	C776.407654,374.961060 773.017578,382.852753 772.125854,391.888641 
	C771.555237,397.670959 771.753601,403.527893 771.569092,409.350159 
	C771.491577,411.795807 771.315979,414.238373 771.109436,418.091156 
	C765.920349,410.356445 764.461487,402.930389 763.836670,395.333466 
	C763.203491,387.636078 762.978088,379.905151 762.488464,370.552673 
	C749.477844,387.046692 740.692078,403.737549 740.651367,424.036316 
	C722.497559,418.145447 719.068909,402.564575 714.962769,387.341034 
	C704.861267,404.068939 706.300110,420.402344 715.496704,436.725311 
	C714.904297,437.108429 714.311890,437.491547 713.719543,437.874664 
	C703.082886,429.119415 692.446289,420.364166 681.338135,411.220795 
	C685.247681,433.593933 699.849365,448.866028 715.530273,464.377502 
	C695.017456,467.047821 676.464233,462.868744 658.065002,456.654968 
	C672.506653,473.059967 686.490479,489.835419 710.160950,495.673889 
	C698.531616,502.337952 686.161316,503.087097 674.955750,507.192780 
	C674.914001,507.672577 674.872192,508.152374 674.830444,508.632172 
	C684.827271,510.261230 694.824097,511.890289 704.820923,513.519348 
	C697.709412,517.002380 690.422668,520.404907 682.763550,521.898499 
	C675.141235,523.384888 667.144958,522.954346 658.590637,523.402100 
	C674.421204,537.975159 693.169922,540.855164 713.620361,539.677856 
	C693.427612,553.751099 680.729187,572.252319 674.436035,596.219177 
	C687.339844,586.550232 699.137451,576.562927 714.855957,570.151794 
	C713.387878,572.833984 712.456543,574.307312 711.741333,575.878906 
	C706.867615,586.587708 701.759399,597.204285 697.359924,608.106018 
	C695.962708,611.568359 694.609314,612.542480 691.007507,612.486511 
	C677.422852,612.275269 664.055969,614.003906 651.300781,618.923340 
	C633.953308,625.613892 621.643433,637.066406 617.451294,655.862305 
	C615.094238,666.430054 615.470520,676.978271 617.396912,687.595276 
	C617.774170,689.674194 616.979736,692.463440 615.745728,694.246887 
	C611.504944,700.375549 608.185242,706.785217 607.395996,714.293701 
	C606.858215,719.410034 607.932007,723.995605 612.528320,726.963684 
	C630.018005,738.257568 649.158508,745.745544 669.118286,751.324341 
	C672.235291,752.195557 674.195923,750.977295 675.629028,748.257324 
	C677.129089,745.410461 678.797363,742.652222 680.392212,739.855225 
	C680.861206,739.747192 681.330261,739.639160 681.799316,739.531128 
	C681.944153,751.052490 689.568481,756.496643 698.026550,761.316406 
	C702.863831,764.072876 707.613953,766.982178 712.971497,770.159546 
	C708.553467,774.284363 704.542114,777.984619 700.581665,781.738586 
	C695.865234,786.209045 695.947937,789.474426 700.775208,793.684875 
	C702.623352,795.296814 704.423584,796.963684 706.664185,798.982727 
	C700.672607,804.671753 695.068298,810.298096 697.460754,819.312622 
	C699.580139,827.298279 703.886353,833.250427 711.513672,834.742432 
	C709.919556,840.766724 708.655518,846.173828 707.051453,851.478149 
	C703.313416,863.839050 700.698669,876.663330 693.146667,887.536926 
	C690.104919,891.916443 688.340088,896.456177 688.694641,901.957336 
	C689.256226,910.672485 688.577087,919.244629 684.247070,927.198608 
	C683.616638,928.356628 683.696289,930.879150 684.514221,931.678284 
	C688.018066,935.101440 685.851990,937.363525 683.582642,940.047913 
	C675.535400,949.566589 667.807312,959.361511 659.583923,968.722839 
	C652.127258,977.211365 653.442871,987.027161 655.027405,996.639709 
	C656.728638,1006.959534 660.720154,1016.637390 665.685791,1025.908081 
	C666.640259,1027.690063 666.695251,1030.378296 666.218384,1032.428223 
	C664.261169,1040.841309 661.845459,1049.147217 659.846619,1057.551514 
	C659.537170,1058.852539 660.129028,1060.754761 660.971130,1061.879517 
	C666.226990,1068.899902 671.504761,1075.917969 677.109558,1082.658813 
	C681.411804,1087.833008 685.682800,1093.279541 690.951660,1097.322876 
	C694.923828,1100.371094 695.775024,1102.638062 693.185120,1106.545532 
	C690.193420,1111.059204 690.486511,1115.640137 692.916626,1120.259888 
	C694.310791,1122.910522 695.870728,1125.490356 697.031189,1128.239258 
	C697.498474,1129.346069 697.456543,1130.957642 697.019653,1132.099609 
	C695.932617,1134.940796 694.251770,1137.562012 693.242676,1140.424194 
	C692.004089,1143.937012 691.518066,1147.732544 690.117493,1151.165405 
	C689.020508,1153.854248 686.750854,1156.045654 685.489929,1158.690674 
	C683.058960,1163.789551 681.906494,1169.794678 678.513428,1174.064819 
	C674.016541,1179.723999 675.312256,1184.247192 678.381104,1189.377197 
	C681.380249,1194.390747 681.893494,1199.408936 679.637573,1205.064087 
	C676.712952,1212.395264 674.533386,1220.023804 671.724609,1228.449829 
	C681.912598,1231.198364 691.512512,1233.788208 701.909546,1236.628418 
M389.074860,924.331848 
	C390.337006,925.286316 391.599121,926.240784 392.868439,927.200623 
	C387.792603,935.117859 382.974823,942.632629 377.922241,950.513550 
	C388.640808,957.337830 398.954041,963.903931 409.489655,970.611694 
	C419.706024,954.847473 429.624512,939.542908 439.450195,924.381592 
	C442.128357,925.385803 444.319519,926.207458 446.861542,927.160645 
	C445.270508,930.049255 443.496735,933.191650 441.795441,936.372803 
	C436.070770,947.077576 439.961121,956.109070 451.427399,959.092712 
	C453.069092,959.519897 455.058838,960.357666 455.946198,961.651184 
	C461.599335,969.891846 466.838715,972.224609 475.960693,969.963135 
	C478.705231,974.130920 482.894012,976.447266 487.742889,975.888000 
	C492.206055,975.373108 496.511261,973.489075 501.530579,972.019531 
	C506.747711,977.383301 506.723969,977.327332 514.822693,973.893311 
	C515.760620,973.495605 517.348450,973.803406 518.269531,974.373901 
	C519.925293,975.399536 521.303894,976.872681 522.967468,978.304382 
	C513.046326,993.674316 503.149200,1009.006958 493.024506,1024.692139 
	C503.603973,1031.524902 514.000671,1038.239502 524.557861,1045.057739 
	C529.818054,1037.057983 534.792358,1029.493042 539.799622,1021.878052 
	C547.995117,1027.160645 555.530640,1032.017822 563.317505,1037.037109 
	C566.830261,1031.747803 570.183838,1026.697998 573.690369,1021.418091 
	C579.152954,1024.908081 584.154846,1028.103638 589.329895,1031.409912 
	C592.825928,1026.170410 596.114258,1021.242371 599.370544,1016.362183 
	C606.337280,1020.020569 608.964355,1019.640991 612.594543,1014.721680 
	C616.445312,1009.503357 615.769470,1005.739868 609.813293,999.936279 
	C612.968811,994.966858 616.150330,989.956482 619.532776,984.629761 
	C615.324585,981.953369 611.459656,979.389587 607.486877,977.005554 
	C604.816956,975.403381 604.151245,973.712158 606.074280,970.970032 
	C608.708801,967.213440 611.056824,963.255981 613.717102,959.087952 
	C605.731018,953.902710 598.110901,948.955017 590.179932,943.805542 
	C595.342651,935.716492 600.209839,928.090271 605.160339,920.333679 
	C594.676025,913.487488 584.614929,906.917542 574.266663,900.160217 
	C576.960632,897.954102 579.063721,896.334351 581.053467,894.585571 
	C591.582947,885.331116 600.184204,874.505615 605.197510,861.403809 
	C607.015747,856.651917 609.593201,853.166077 613.191040,849.969116 
	C621.919312,842.213379 627.974487,833.023315 629.132446,820.995300 
	C629.560059,816.553833 630.547180,812.068054 632.018677,807.861267 
	C632.931091,805.252930 634.862244,802.705078 636.974731,800.862244 
	C647.805481,791.413513 657.636719,781.198669 665.080566,766.913391 
	C639.837708,761.680115 619.389282,747.946350 599.176758,732.776550 
	C592.571411,744.351807 584.201965,753.614319 585.900879,767.097595 
	C586.174194,769.266418 584.491272,772.147278 582.900024,774.001648 
	C577.262451,780.571411 570.627319,786.375244 565.608887,793.359436 
	C561.137146,799.582703 554.115540,803.129456 550.772034,810.680481 
	C543.033997,828.156311 534.242920,845.172485 525.635071,862.252197 
	C523.443909,866.599915 521.755310,870.604492 524.784668,874.633850 
	C514.337646,879.754944 504.008911,884.362671 494.146271,889.813599 
	C487.631226,893.414368 480.932831,894.869690 473.681458,895.185425 
	C470.856842,895.308411 468.074127,896.393555 465.187164,897.060120 
	C464.090698,895.855408 462.475983,894.081299 460.553558,891.969116 
	C470.302887,876.845093 480.172272,861.534912 490.198242,845.981812 
	C479.520935,839.088623 469.232697,832.446594 458.641113,825.608765 
	C453.478271,833.471558 448.570801,840.945435 443.460602,848.728027 
	C435.516541,843.632324 427.867767,838.726013 419.887329,833.606995 
	C416.355927,838.965515 413.033997,844.006104 409.677216,849.099670 
	C405.763855,846.523621 402.134735,844.435303 398.856140,841.894714 
	C395.341309,839.171143 393.044891,838.921936 390.825623,843.481079 
	C388.962250,847.308899 386.185150,850.692017 383.842010,854.227661 
	C376.491058,850.508545 374.380615,850.878662 370.478821,856.324158 
	C366.449402,861.947815 366.916779,864.431946 373.336151,870.611267 
	C370.268799,875.446167 367.168854,880.332397 363.863068,885.543030 
	C369.068146,888.989319 374.131287,892.341614 379.374451,895.813110 
	C376.001617,901.213318 372.800079,906.339294 369.452576,911.698975 
	C376.200134,916.049072 382.333832,920.003479 389.074860,924.331848 
z"/>
<path fill="#70B625" opacity="1.000000" stroke="none" 
	d="
M1078.349609,273.632568 
	C1072.570312,270.335846 1067.102905,267.235291 1060.786011,263.652954 
	C1073.113525,257.226807 1084.734375,251.169052 1097.108521,244.718674 
	C1098.361328,258.678558 1099.566162,272.104370 1100.846313,286.368591 
	C1093.028076,281.949371 1085.844849,277.889069 1078.349609,273.632568 
z"/>
<path fill="#70B625" opacity="1.000000" stroke="none" 
	d="
M443.784912,325.785248 
	C435.273010,331.895752 427.051086,337.795715 418.087372,344.227997 
	C417.335205,330.558350 416.614380,317.458435 415.836395,303.319244 
	C429.136047,308.021851 441.821838,312.507385 455.268036,317.261810 
	C451.155457,320.316132 447.615173,322.945435 443.784912,325.785248 
z"/>
<path fill="#FEFFFE" opacity="1.000000" stroke="none" 
	d="
M701.510986,1236.503174 
	C691.512512,1233.788208 681.912598,1231.198364 671.724609,1228.449829 
	C674.533386,1220.023804 676.712952,1212.395264 679.637573,1205.064087 
	C681.893494,1199.408936 681.380249,1194.390747 678.381104,1189.377197 
	C675.312256,1184.247192 674.016541,1179.723999 678.513428,1174.064819 
	C681.906494,1169.794678 683.058960,1163.789551 685.489929,1158.690674 
	C686.750854,1156.045654 689.020508,1153.854248 690.117493,1151.165405 
	C691.518066,1147.732544 692.004089,1143.937012 693.242676,1140.424194 
	C694.251770,1137.562012 695.932617,1134.940796 697.019653,1132.099609 
	C697.456543,1130.957642 697.498474,1129.346069 697.031189,1128.239258 
	C695.870728,1125.490356 694.310791,1122.910522 692.916626,1120.259888 
	C690.486511,1115.640137 690.193420,1111.059204 693.185120,1106.545532 
	C695.775024,1102.638062 694.923828,1100.371094 690.951660,1097.322876 
	C685.682800,1093.279541 681.411804,1087.833008 677.109558,1082.658813 
	C671.504761,1075.917969 666.226990,1068.899902 660.971130,1061.879517 
	C660.129028,1060.754761 659.537170,1058.852539 659.846619,1057.551514 
	C661.845459,1049.147217 664.261169,1040.841309 666.218384,1032.428223 
	C666.695251,1030.378296 666.640259,1027.690063 665.685791,1025.908081 
	C660.720154,1016.637390 656.728638,1006.959534 655.027405,996.639709 
	C653.442871,987.027161 652.127258,977.211365 659.583923,968.722839 
	C667.807312,959.361511 675.535400,949.566589 683.582642,940.047913 
	C685.851990,937.363525 688.018066,935.101440 684.514221,931.678284 
	C683.696289,930.879150 683.616638,928.356628 684.247070,927.198608 
	C688.577087,919.244629 689.256226,910.672485 688.694641,901.957336 
	C688.340088,896.456177 690.104919,891.916443 693.146667,887.536926 
	C700.698669,876.663330 703.313416,863.839050 707.051453,851.478149 
	C708.655518,846.173828 709.919556,840.766724 711.513672,834.742432 
	C703.886353,833.250427 699.580139,827.298279 697.460754,819.312622 
	C695.068298,810.298096 700.672607,804.671753 706.664185,798.982727 
	C704.423584,796.963684 702.623352,795.296814 700.775208,793.684875 
	C695.947937,789.474426 695.865234,786.209045 700.581665,781.738586 
	C704.542114,777.984619 708.553467,774.284363 712.971497,770.159546 
	C707.613953,766.982178 702.863831,764.072876 698.026550,761.316406 
	C689.568481,756.496643 681.944153,751.052490 681.799316,739.531128 
	C681.330261,739.639160 680.861206,739.747192 680.392212,739.855225 
	C678.797363,742.652222 677.129089,745.410461 675.629028,748.257324 
	C674.195923,750.977295 672.235291,752.195557 669.118286,751.324341 
	C649.158508,745.745544 630.018005,738.257568 612.528320,726.963684 
	C607.932007,723.995605 606.858215,719.410034 607.395996,714.293701 
	C608.185242,706.785217 611.504944,700.375549 615.745728,694.246887 
	C616.979736,692.463440 617.774170,689.674194 617.396912,687.595276 
	C615.470520,676.978271 615.094238,666.430054 617.451294,655.862305 
	C621.643433,637.066406 633.953308,625.613892 651.300781,618.923340 
	C664.055969,614.003906 677.422852,612.275269 691.007507,612.486511 
	C694.609314,612.542480 695.962708,611.568359 697.359924,608.106018 
	C701.759399,597.204285 706.867615,586.587708 711.741333,575.878906 
	C712.456543,574.307312 713.387878,572.833984 714.855957,570.151794 
	C699.137451,576.562927 687.339844,586.550232 674.436035,596.219177 
	C680.729187,572.252319 693.427612,553.751099 713.620361,539.677856 
	C693.169922,540.855164 674.421204,537.975159 658.590637,523.402100 
	C667.144958,522.954346 675.141235,523.384888 682.763550,521.898499 
	C690.422668,520.404907 697.709412,517.002380 704.820923,513.519348 
	C694.824097,511.890289 684.827271,510.261230 674.830444,508.632172 
	C674.872192,508.152374 674.914001,507.672577 674.955750,507.192780 
	C686.161316,503.087097 698.531616,502.337952 710.160950,495.673889 
	C686.490479,489.835419 672.506653,473.059967 658.065002,456.654968 
	C676.464233,462.868744 695.017456,467.047821 715.530273,464.377502 
	C699.849365,448.866028 685.247681,433.593933 681.338135,411.220795 
	C692.446289,420.364166 703.082886,429.119415 713.719543,437.874664 
	C714.311890,437.491547 714.904297,437.108429 715.496704,436.725311 
	C706.300110,420.402344 704.861267,404.068939 714.962769,387.341034 
	C719.068909,402.564575 722.497559,418.145447 740.651367,424.036316 
	C740.692078,403.737549 749.477844,387.046692 762.488464,370.552673 
	C762.978088,379.905151 763.203491,387.636078 763.836670,395.333466 
	C764.461487,402.930389 765.920349,410.356445 771.109436,418.091156 
	C771.315979,414.238373 771.491577,411.795807 771.569092,409.350159 
	C771.753601,403.527893 771.555237,397.670959 772.125854,391.888641 
	C773.017578,382.852753 776.407654,374.961060 783.434143,368.702209 
	C789.830200,363.004822 795.791992,356.819885 802.884888,349.938110 
	C800.325073,364.815125 796.928467,378.495392 803.185974,391.743195 
	C805.610474,396.876068 809.301514,401.410706 813.096680,405.959412 
	C819.208801,392.619385 818.787537,379.059021 816.845215,364.635071 
	C823.155151,372.956177 836.762512,397.719025 837.544067,423.246063 
	C851.137695,408.923920 857.855957,391.586548 865.681641,374.919800 
	C866.224731,374.892059 866.767822,374.864288 867.310974,374.836548 
	C868.836182,383.992920 870.768799,393.104828 871.774902,402.317902 
	C872.833496,412.012054 869.823486,421.000671 863.898438,430.285187 
	C874.853516,428.858459 882.350464,423.591461 888.623657,416.819733 
	C894.911316,410.032471 900.359863,402.467896 906.683472,394.613953 
	C906.484924,407.379578 903.537048,418.973145 898.042114,429.971100 
	C892.529907,441.003387 884.373657,449.887268 874.934875,458.057404 
	C896.007874,459.318054 916.543945,457.545502 936.692932,450.904724 
	C922.048767,468.120453 907.317078,485.084991 883.102722,491.789886 
	C892.511719,496.297516 899.182007,503.741516 910.091980,502.453522 
	C919.141602,501.385162 928.349304,501.650330 937.487976,501.355377 
	C938.085693,501.336060 938.691895,501.578979 940.094116,501.860657 
	C924.515137,519.649719 904.490723,527.727295 881.763977,533.109741 
	C896.900635,543.945496 907.185303,557.190369 911.207886,574.094666 
	C900.033997,568.736877 888.805786,563.353027 877.577576,557.969116 
	C877.264954,558.419373 876.952393,558.869629 876.639771,559.319885 
	C883.933105,573.635193 892.078552,587.617249 894.754456,603.874329 
	C882.754639,595.797729 873.942200,583.903076 860.381409,577.954712 
	C868.868652,588.651978 874.056824,600.506714 874.598267,614.843994 
	C882.023987,612.552551 888.502075,610.575562 894.966431,608.554443 
	C911.423279,603.408997 927.991943,601.737366 944.405701,608.279419 
	C957.847290,613.636902 968.612244,622.142029 973.868103,636.306152 
	C977.268982,645.471069 980.937744,654.539978 984.154236,663.767700 
	C984.998352,666.189514 984.321594,669.099243 984.839294,671.685608 
	C985.968750,677.328552 987.193848,682.972351 988.794739,688.495544 
	C990.546814,694.540405 992.957031,700.394165 994.718079,706.436829 
	C995.995789,710.820740 994.374268,714.104614 990.034729,716.148682 
	C977.613953,721.999390 965.221436,727.914551 952.908569,733.988525 
	C944.188843,738.289978 935.616638,742.890503 927.338196,747.171509 
	C924.495056,742.252502 921.994019,737.925415 919.329956,733.316223 
	C918.268372,734.290283 917.724426,734.544189 917.623291,734.917908 
	C915.117004,744.177002 908.748047,750.081787 900.354248,753.705078 
	C890.488953,757.963379 887.481323,767.202576 883.289307,774.868530 
	C888.506836,777.112732 893.642212,778.957458 898.435425,781.458008 
	C908.881897,786.907532 913.147705,800.675232 907.967468,811.215393 
	C905.916321,815.388794 904.029480,819.648560 901.837341,823.745667 
	C896.122253,834.426819 890.863708,836.129883 879.937805,831.059875 
	C878.487671,830.386963 877.011169,829.770996 874.091248,828.490112 
	C878.333923,835.855103 881.842834,841.952393 885.358765,848.045654 
	C886.273010,849.630066 887.357056,851.134644 888.109680,852.791077 
	C891.302795,859.818848 896.730835,863.929688 903.689392,867.311707 
	C912.449890,871.569702 920.790833,876.948792 928.635437,882.758728 
	C936.004395,888.216309 939.156067,896.809204 941.158020,905.462585 
	C942.111877,909.585938 944.004333,912.060181 947.825378,913.117737 
	C953.315247,914.637207 956.444824,918.196289 958.231079,923.517944 
	C961.338013,932.774109 965.732056,941.716553 967.736145,951.182312 
	C969.029175,957.289917 967.022522,964.096191 966.419739,971.511902 
	C968.535461,975.203979 971.380920,980.169556 973.791931,984.376892 
	C976.017517,981.968872 978.200500,979.606873 980.982666,976.596619 
	C978.859985,972.086243 976.346558,966.745483 973.560486,960.825317 
	C979.079773,958.097839 984.482971,955.427673 990.257629,952.574036 
	C987.664795,946.975952 985.304199,941.879333 982.627258,936.099792 
	C990.968628,932.105652 999.260620,928.135193 1007.972412,923.963684 
	C1003.925232,915.367065 1000.072876,907.184326 996.101257,898.748230 
	C1004.352539,894.786072 1012.246033,890.995728 1020.683838,886.943970 
	C1012.885376,877.795227 1005.368591,869.175537 998.114258,860.340332 
	C996.051880,857.828491 994.773132,854.677917 993.094055,851.844543 
	C992.453308,850.763367 991.799988,849.657715 990.964417,848.733215 
	C990.192993,847.879761 989.258484,847.085083 988.244446,846.552795 
	C972.010254,838.031677 969.865234,822.841187 969.963074,806.942749 
	C969.993591,801.980530 968.102722,799.120605 964.336914,796.786377 
	C963.772583,796.436523 963.181519,796.113159 962.568359,795.861267 
	C949.005188,790.290710 939.501221,781.092102 935.956116,766.426636 
	C935.538147,764.697571 934.378052,763.147949 933.288879,760.968689 
	C934.844055,760.200623 936.465515,759.152954 938.239197,758.561584 
	C958.377808,751.846985 977.345154,742.541687 995.914185,732.394470 
	C999.795166,730.273560 1001.864136,730.642700 1004.255493,734.663086 
	C1007.844360,740.697021 1010.949097,746.763062 1009.752380,753.887207 
	C1008.238892,762.896545 1013.104126,768.354065 1019.520874,773.081604 
	C1023.271057,775.844482 1027.056396,778.657837 1031.153198,780.832153 
	C1040.239868,785.655029 1045.775391,793.083557 1048.934326,802.693237 
	C1049.502197,804.421143 1051.632202,805.575317 1052.715210,807.210205 
	C1053.939575,809.058228 1055.052002,811.061768 1055.770752,813.149963 
	C1059.654541,824.434753 1063.311157,835.798462 1067.265991,847.057678 
	C1068.130981,849.519897 1069.513306,852.036377 1071.315552,853.886719 
	C1075.770508,858.460571 1077.350708,863.557373 1076.060913,869.814209 
	C1075.845215,870.861084 1077.111328,872.829285 1078.207764,873.427429 
	C1083.882935,876.523193 1089.837158,879.111938 1095.482056,882.257812 
	C1102.871338,886.375610 1110.446655,889.085693 1119.118896,889.020386 
	C1121.742310,889.000671 1125.155762,891.089905 1126.853271,893.268311 
	C1129.953125,897.246155 1133.770996,898.616455 1138.863403,899.087036 
	C1138.124268,895.103760 1137.735474,891.221436 1143.548096,890.121704 
	C1135.554077,873.257874 1127.764404,856.824890 1119.763184,839.945923 
	C1131.056885,834.564392 1142.104736,829.300049 1153.674316,823.786987 
	C1157.685791,832.072205 1161.574707,840.104248 1165.723999,848.673828 
	C1174.064087,844.757751 1182.275513,840.902161 1191.011108,836.800415 
	C1193.663696,842.156494 1196.286621,847.452515 1199.218384,853.372192 
	C1203.588501,851.266907 1207.914185,849.330200 1212.094849,847.119568 
	C1215.088623,845.536499 1216.846680,845.808899 1218.180908,849.263733 
	C1219.844727,853.572510 1222.047729,857.673035 1223.996582,861.817932 
	C1232.041138,859.190613 1234.462524,860.058228 1237.449707,866.402466 
	C1240.429321,872.731262 1239.744873,874.585144 1232.392578,879.298035 
	C1234.826660,884.580017 1237.294434,889.934753 1239.896851,895.581970 
	C1234.327148,898.263916 1228.966309,900.845276 1223.153198,903.644409 
	C1225.733032,909.214600 1228.216797,914.577332 1231.033325,920.658386 
	C1222.593140,924.697876 1214.299072,928.667358 1205.648804,932.807312 
	C1209.611206,941.240295 1213.404297,949.312866 1217.510010,958.051025 
	C1206.295776,963.344177 1195.251465,968.557068 1183.685913,974.015930 
	C1175.685547,957.254517 1167.771240,940.673401 1159.709839,923.784424 
	C1155.764038,926.386780 1152.310303,926.428406 1149.614624,921.896362 
	C1149.347656,922.237671 1149.080688,922.578918 1148.813843,922.920227 
	C1149.649414,924.352905 1150.929077,925.696106 1151.239380,927.234741 
	C1152.269653,932.341736 1153.616577,937.544556 1153.420288,942.656128 
	C1153.347656,944.550049 1149.559570,946.731689 1147.066772,947.993713 
	C1143.937012,949.578491 1140.694214,949.910400 1138.813599,954.053406 
	C1136.035767,960.172668 1128.793701,962.302307 1122.456665,960.243408 
	C1117.241577,968.544373 1105.337402,969.374084 1099.291382,961.986694 
	C1098.275269,963.352783 1097.217041,964.619873 1096.331665,965.997925 
	C1094.404785,968.996948 1091.925537,968.881165 1088.926392,967.789062 
	C1084.675415,966.241150 1080.378662,964.614807 1075.958130,963.842041 
	C1074.291870,963.550720 1072.225830,965.546875 1070.038330,966.653992 
	C1077.971680,983.387634 1085.787598,999.873779 1093.795288,1016.764282 
	C1082.491089,1022.147766 1071.425537,1027.417603 1059.870605,1032.920532 
	C1055.856201,1024.547241 1051.941040,1016.380920 1047.879395,1007.909241 
	C1039.186279,1012.002991 1030.967407,1015.873535 1022.474365,1019.873108 
	C1019.752136,1014.272400 1017.154785,1008.928650 1014.329285,1003.115417 
	C1008.701416,1005.723938 1003.343506,1008.207275 997.409546,1010.957642 
	C994.804688,1005.587585 992.234009,1000.287903 989.636658,994.933289 
	C986.726257,995.716309 983.975647,996.456299 980.856384,997.295471 
	C982.982788,1000.627869 985.010803,1004.036316 987.262451,1007.290039 
	C993.207153,1015.880127 994.713074,1024.714600 988.277466,1033.615112 
	C978.153442,1047.616577 968.239685,1061.809448 957.384705,1075.232178 
	C946.262756,1088.984985 935.006348,1102.519531 928.227356,1119.080200 
	C927.190247,1121.613770 926.922607,1124.453735 926.174438,1127.116943 
	C925.641724,1129.013062 925.268250,1131.121948 924.150208,1132.639648 
	C922.974243,1134.235840 920.996643,1135.241333 919.369385,1136.505005 
	C918.615906,1134.830200 917.896912,1133.138916 917.102051,1131.484009 
	C915.182983,1127.488281 913.352478,1123.439941 911.185791,1119.581543 
	C910.743042,1118.793213 909.001465,1118.685059 907.830872,1118.365112 
	C905.361572,1117.690186 902.874023,1117.082520 900.393921,1116.447266 
	C900.180420,1115.725586 899.966919,1115.004028 899.753357,1114.282349 
	C902.196472,1112.830444 904.639526,1111.378540 907.763123,1109.522095 
	C904.225281,1106.482544 902.063049,1104.624878 900.052185,1102.897217 
	C897.610596,1108.670654 895.247925,1113.923096 893.225708,1119.303467 
	C892.788635,1120.466431 893.451172,1122.123657 893.823364,1123.494629 
	C895.082214,1128.131714 896.540527,1132.716187 897.731812,1137.369751 
	C899.349426,1143.688965 895.676270,1148.627930 893.008545,1153.725586 
	C891.618469,1156.381714 891.562805,1158.263794 893.446838,1160.856445 
	C902.426270,1173.213745 904.845032,1186.559570 898.120483,1200.757935 
	C896.061401,1205.105591 896.466553,1208.731201 898.683838,1212.937012 
	C902.121094,1219.456787 904.840515,1226.354980 908.418152,1234.326782 
	C894.807800,1237.752686 882.722595,1241.399170 870.393738,1243.789551 
	C825.841064,1252.427246 781.225952,1250.608765 736.696655,1243.393555 
	C725.041565,1241.505127 713.502075,1238.902832 701.510986,1236.503174 
M799.191040,678.030151 
	C785.305847,679.183655 772.698181,675.196533 760.503540,668.921143 
	C755.846619,666.524719 752.353638,660.136169 745.145081,664.305969 
	C729.291565,644.103149 721.836853,622.586792 731.799316,596.243103 
	C726.058472,600.581421 721.173096,604.273315 715.317688,608.698242 
	C721.458557,607.894897 723.174133,610.754822 723.660828,614.874329 
	C723.934082,617.187012 723.871826,619.551941 724.290222,621.832886 
	C727.166870,637.515686 731.383362,652.770691 738.869568,666.978394 
	C739.529663,668.231079 740.223206,670.029724 739.810974,671.185974 
	C738.062256,676.089600 741.208740,677.608704 744.680237,679.201416 
	C746.774658,680.162415 748.913757,681.166687 750.746399,682.535034 
	C764.885803,693.092957 778.933044,703.774353 793.056030,714.354431 
	C799.908020,719.487549 801.079773,719.585571 807.170959,713.951599 
	C821.430359,700.762573 835.537231,687.407837 849.612671,674.022156 
	C850.851196,672.844360 851.614014,671.025269 852.235352,669.368103 
	C853.647583,665.601562 854.748230,661.718872 856.135132,657.941956 
	C857.732910,653.590881 860.218140,649.437195 861.058350,644.961304 
	C863.256226,633.252014 864.767944,621.413940 866.558594,609.591492 
	C865.018555,608.828186 863.727600,608.188293 861.731384,607.198853 
	C861.731384,609.555969 861.905884,611.340515 861.702942,613.081055 
	C860.452332,623.807495 859.434570,634.576477 857.681030,645.222839 
	C856.740662,650.931885 854.223816,656.259399 849.036072,659.704102 
	C847.439453,658.686157 846.081299,657.820251 844.599243,656.875366 
	C831.977966,668.838135 817.125549,675.704468 799.191040,678.030151 
M1148.437378,921.966919 
	C1148.512085,921.732605 1148.586670,921.498230 1148.661255,921.263855 
	C1148.431763,921.343628 1148.202271,921.423401 1148.437378,921.966919 
z"/>
<path fill="#FEFEFE" opacity="1.000000" stroke="none" 
	d="
M388.771210,924.144836 
	C382.333832,920.003479 376.200134,916.049072 369.452576,911.698975 
	C372.800079,906.339294 376.001617,901.213318 379.374451,895.813110 
	C374.131287,892.341614 369.068146,888.989319 363.863068,885.543030 
	C367.168854,880.332397 370.268799,875.446167 373.336151,870.611267 
	C366.916779,864.431946 366.449402,861.947815 370.478821,856.324158 
	C374.380615,850.878662 376.491058,850.508545 383.842010,854.227661 
	C386.185150,850.692017 388.962250,847.308899 390.825623,843.481079 
	C393.044891,838.921936 395.341309,839.171143 398.856140,841.894714 
	C402.134735,844.435303 405.763855,846.523621 409.677216,849.099670 
	C413.033997,844.006104 416.355927,838.965515 419.887329,833.606995 
	C427.867767,838.726013 435.516541,843.632324 443.460602,848.728027 
	C448.570801,840.945435 453.478271,833.471558 458.641113,825.608765 
	C469.232697,832.446594 479.520935,839.088623 490.198242,845.981812 
	C480.172272,861.534912 470.302887,876.845093 460.553558,891.969116 
	C462.475983,894.081299 464.090698,895.855408 465.187164,897.060120 
	C468.074127,896.393555 470.856842,895.308411 473.681458,895.185425 
	C480.932831,894.869690 487.631226,893.414368 494.146271,889.813599 
	C504.008911,884.362671 514.337646,879.754944 524.784668,874.633850 
	C521.755310,870.604492 523.443909,866.599915 525.635071,862.252197 
	C534.242920,845.172485 543.033997,828.156311 550.772034,810.680481 
	C554.115540,803.129456 561.137146,799.582703 565.608887,793.359436 
	C570.627319,786.375244 577.262451,780.571411 582.900024,774.001648 
	C584.491272,772.147278 586.174194,769.266418 585.900879,767.097595 
	C584.201965,753.614319 592.571411,744.351807 599.176758,732.776550 
	C619.389282,747.946350 639.837708,761.680115 665.080566,766.913391 
	C657.636719,781.198669 647.805481,791.413513 636.974731,800.862244 
	C634.862244,802.705078 632.931091,805.252930 632.018677,807.861267 
	C630.547180,812.068054 629.560059,816.553833 629.132446,820.995300 
	C627.974487,833.023315 621.919312,842.213379 613.191040,849.969116 
	C609.593201,853.166077 607.015747,856.651917 605.197510,861.403809 
	C600.184204,874.505615 591.582947,885.331116 581.053467,894.585571 
	C579.063721,896.334351 576.960632,897.954102 574.266663,900.160217 
	C584.614929,906.917542 594.676025,913.487488 605.160339,920.333679 
	C600.209839,928.090271 595.342651,935.716492 590.179932,943.805542 
	C598.110901,948.955017 605.731018,953.902710 613.717102,959.087952 
	C611.056824,963.255981 608.708801,967.213440 606.074280,970.970032 
	C604.151245,973.712158 604.816956,975.403381 607.486877,977.005554 
	C611.459656,979.389587 615.324585,981.953369 619.532776,984.629761 
	C616.150330,989.956482 612.968811,994.966858 609.813293,999.936279 
	C615.769470,1005.739868 616.445312,1009.503357 612.594543,1014.721680 
	C608.964355,1019.640991 606.337280,1020.020569 599.370544,1016.362183 
	C596.114258,1021.242371 592.825928,1026.170410 589.329895,1031.409912 
	C584.154846,1028.103638 579.152954,1024.908081 573.690369,1021.418091 
	C570.183838,1026.697998 566.830261,1031.747803 563.317505,1037.037109 
	C555.530640,1032.017822 547.995117,1027.160645 539.799622,1021.878052 
	C534.792358,1029.493042 529.818054,1037.057983 524.557861,1045.057739 
	C514.000671,1038.239502 503.603973,1031.524902 493.024506,1024.692139 
	C503.149200,1009.006958 513.046326,993.674316 522.967468,978.304382 
	C521.303894,976.872681 519.925293,975.399536 518.269531,974.373901 
	C517.348450,973.803406 515.760620,973.495605 514.822693,973.893311 
	C506.723969,977.327332 506.747711,977.383301 501.530579,972.019531 
	C496.511261,973.489075 492.206055,975.373108 487.742889,975.888000 
	C482.894012,976.447266 478.705231,974.130920 475.960693,969.963135 
	C466.838715,972.224609 461.599335,969.891846 455.946198,961.651184 
	C455.058838,960.357666 453.069092,959.519897 451.427399,959.092712 
	C439.961121,956.109070 436.070770,947.077576 441.795441,936.372803 
	C443.496735,933.191650 445.270508,930.049255 446.861542,927.160645 
	C444.319519,926.207458 442.128357,925.385803 439.450195,924.381592 
	C429.624512,939.542908 419.706024,954.847473 409.489655,970.611694 
	C398.954041,963.903931 388.640808,957.337830 377.922241,950.513550 
	C382.974823,942.632629 387.792603,935.117859 392.868439,927.200623 
	C391.599121,926.240784 390.337006,925.286316 388.771210,924.144836 
M562.325317,904.372681 
	C561.723938,904.456055 560.670105,904.390808 560.586731,904.644409 
	C557.953003,912.657898 555.413574,920.702393 552.859802,928.742126 
	C553.473694,929.048462 554.087524,929.354858 554.701355,929.661194 
	C560.275391,921.041443 565.849487,912.421631 571.410156,903.822449 
	C568.187927,904.138000 565.621033,904.389404 562.325317,904.372681 
z"/>
<path fill="#6FB625" opacity="1.000000" stroke="none" 
	d="
M799.650635,677.984619 
	C817.125549,675.704468 831.977966,668.838135 844.599243,656.875366 
	C846.081299,657.820251 847.439453,658.686157 849.036072,659.704102 
	C854.223816,656.259399 856.740662,650.931885 857.681030,645.222839 
	C859.434570,634.576477 860.452332,623.807495 861.702942,613.081055 
	C861.905884,611.340515 861.731384,609.555969 861.731384,607.198853 
	C863.727600,608.188293 865.018555,608.828186 866.558594,609.591492 
	C864.767944,621.413940 863.256226,633.252014 861.058350,644.961304 
	C860.218140,649.437195 857.732910,653.590881 856.135132,657.941956 
	C854.748230,661.718872 853.647583,665.601562 852.235352,669.368103 
	C851.614014,671.025269 850.851196,672.844360 849.612671,674.022156 
	C835.537231,687.407837 821.430359,700.762573 807.170959,713.951599 
	C801.079773,719.585571 799.908020,719.487549 793.056030,714.354431 
	C778.933044,703.774353 764.885803,693.092957 750.746399,682.535034 
	C748.913757,681.166687 746.774658,680.162415 744.680237,679.201416 
	C741.208740,677.608704 738.062256,676.089600 739.810974,671.185974 
	C740.223206,670.029724 739.529663,668.231079 738.869568,666.978394 
	C731.383362,652.770691 727.166870,637.515686 724.290222,621.832886 
	C723.871826,619.551941 723.934082,617.187012 723.660828,614.874329 
	C723.174133,610.754822 721.458557,607.894897 715.317688,608.698242 
	C721.173096,604.273315 726.058472,600.581421 731.799316,596.243103 
	C721.836853,622.586792 729.291565,644.103149 745.145081,664.305969 
	C752.353638,660.136169 755.846619,666.524719 760.503540,668.921143 
	C772.698181,675.196533 785.305847,679.183655 799.650635,677.984619 
z"/>
<path fill="#6EB721" opacity="1.000000" stroke="none" 
	d="
M1148.205078,921.735107 
	C1148.202271,921.423401 1148.431763,921.343628 1148.661255,921.263855 
	C1148.586670,921.498230 1148.512085,921.732605 1148.205078,921.735107 
z"/>
<path fill="#72B62C" opacity="1.000000" stroke="none" 
	d="
M562.689697,904.506714 
	C565.621033,904.389404 568.187927,904.138000 571.410156,903.822449 
	C565.849487,912.421631 560.275391,921.041443 554.701355,929.661194 
	C554.087524,929.354858 553.473694,929.048462 552.859802,928.742126 
	C555.413574,920.702393 557.953003,912.657898 560.586731,904.644409 
	C560.670105,904.390808 561.723938,904.456055 562.689697,904.506714 
z"/>
</svg>