<svg version="1.2" xmlns="http://www.w3.org/2000/svg" viewBox="0 0 600 600" width="600" height="600">
	<title>logo</title>
	<style>
		.s0 { fill: #040404 } 
	</style>
	<g id="Layer 1">
		<path class="s0" d="m226 68c6.5 1.2 12.8 2.6 19.2 4.3q1.3 0.3 2.6 0.7c68.7 18.1 68.7 18.1 85.1 45.2 17 29.5 23.3 64.1 23.1 97.8q0.9 0.4 1.8 0.7c28.1 11.1 50.3 24 63.6 52.2 2.6 6.3 2.6 6.3 2.6 10.1q1-0.5 2-1 2-0.3 4.1-0.4 1.3-0.1 2.6-0.2 1.4-0.1 2.8-0.2c1.5-0.2 1.5-0.2 3-0.3q4.9-0.4 9.8-0.7 3.4-0.3 6.8-0.6 7.2-0.5 14.4-1.1 9.1-0.7 18.3-1.4 7-0.6 14.1-1.1 3.4-0.3 6.7-0.5 4.8-0.4 9.5-0.8 1.4-0.1 2.8-0.2c4.1-0.3 8.1-0.6 12.1-0.5-0.6 3.6-1.7 4.9-4.4 7.2q-1.1 0.9-2.2 1.8-1.2 1-2.4 2-2.4 2.2-4.9 4.4c-1.2 1.1-1.2 1.1-2.5 2.3-1.3 1.1-1.3 1.1-2.6 2.3q-8.9 8.1-18 16-2.3 2-4.5 3.9-1.7 1.6-3.5 3.1c3.2 1.1 5.9 1.3 9.3 1.5q2 0.1 4 0.2 2.1 0.1 4.3 0.2 2.2 0.2 4.4 0.3 5.8 0.3 11.6 0.7 9.3 0.5 18.6 1 3.2 0.2 6.4 0.4c7.5 0.4 14.9 1 22.4 1.7-1.8 3.9-3.3 5.1-7.1 7q-1.6 0.9-3.3 1.7-1.7 0.9-3.4 1.8-3.6 1.9-7.2 3.8-0.9 0.5-1.8 0.9c-5.3 2.8-10.4 5.7-15.5 8.7-8.3 4.8-16.7 9.4-25.1 14q-17.6 9.7-35.2 19.7-3.4 2-6.9 3.9-1.9 1.1-3.9 2.2-1.6 1-3.2 1.9c-2.3 1.2-2.3 1.2-3.4 2.4q1 0.3 2 0.5 10.3 2.7 20.5 5.4 3.9 1 7.7 2 5.5 1.5 11 2.9 1.7 0.5 3.5 1 1.6 0.4 3.2 0.8 1.4 0.4 2.8 0.7c2.3 0.7 2.3 0.7 4.3 1.7q0 1 0 2-19 6.2-38.1 11.8-1.1 0.3-2.1 0.6-8.7 2.6-17.3 5.1-6.6 2-13.1 3.9-3.1 0.9-6.1 1.8-1.8 0.5-3.7 1.1c-1.6 0.4-1.6 0.4-3.2 0.9-2.3 0.6-2.3 0.6-3.4 1.8q1.2 0.6 2.5 1.1 4.5 2.2 9 4.3 1.9 0.9 3.9 1.8 2.8 1.3 5.6 2.7 1.7 0.8 3.4 1.6c2.6 1.5 2.6 1.5 3.6 4.5-21.8 1-43.6 2-66 3-1.3 2.6-2.6 5.3-4 8-1.8 2.2-3.5 4.2-5.5 6.2q-0.8 0.9-1.6 1.7-2.4 2.6-4.9 5.1-0.8 0.8-1.6 1.6c-9.9 10.3-20.7 19.2-32.4 27.4q-1 0.7-2.1 1.5c-9.1 6.2-19.2 7-29.9 6.9q-1.6 0-3.3 0c-10.6 0-19.6-1.8-28.2-8-1-0.7-1-0.7-1.9-1.4-17.1-12-44.9-31.7-49.6-53q0-1 0-2c-1.1-0.1-1.1-0.1-2.1-0.2-2.9-0.8-2.9-0.8-5.5-3.3-3.8-3.2-7.3-3.5-12.1-3.9q-1.3-0.1-2.6-0.2-4.3-0.5-8.5-0.8-3-0.3-5.9-0.6-7.8-0.8-15.6-1.5-7.9-0.7-15.7-1.5-8.9-0.8-17.8-1.6-1.3-0.2-2.7-0.3-2.5-0.2-5-0.5-6.8-0.6-13.5-1.6 0-1.5 0-3 1.5-0.8 3.1-1.7c14-7.7 28-15.5 41.6-24 2.3-1.3 2.3-1.3 4.3-1.3q0-1 0-2-1.3-0.4-2.6-0.8c-3.5-1.2-6.8-2.7-10.1-4.4-32.5-15.4-68.1-24.2-103.2-31.1-3.1-0.7-3.1-0.7-5.1-1.7 1.5-4 3.6-5.2 7.4-7.2 1.6-0.9 1.6-0.9 3.4-1.8q1.8-1 3.6-1.9 1.9-1 3.8-2c70.6-37 70.6-37 98.8-37.1-13.4-33.1-37.9-58.6-66-80q-0.9-0.7-1.8-1.4c-19-14.4-39.4-26.1-60.2-37.6 0.4-2.6 0.7-3.7 2.7-5.4q1-0.6 2.1-1.3 1.2-0.7 2.5-1.4 1.3-0.8 2.6-1.5 1.4-0.8 2.8-1.6 4.1-2.4 8.3-4.8 1.1-0.7 2.3-1.3c19.8-11.4 40.2-21.9 61.7-29.7q1-0.4 2.1-0.8c25.3-9.2 45.1-8.5 69.4 2.6 21.3 10.1 39.6 24.7 56.7 40.8 2.7 2.5 2.7 2.5 5.8 4.4 0.9-40.1-6.9-77.5-20.2-115.3-0.8-2.7-0.8-2.7-0.8-5.7zm94.3 263.8c-2 1.9-4.1 3.7-6.2 5.4-17 15-30.8 34-43.1 52.8q-0.7 1.1-1.5 2.3-0.7 1-1.4 2.1-0.6 1-1.2 2c-1.1 1.6-1.1 1.6-0.9 3.6q-1-0.5-2-1c-0.5-2.9-0.8-5.7-1.1-8.7q-0.1-1.4-0.2-2.9c-1.5-19.1-1.4-38.3-1.7-57.4-1.7 0.9-1.7 0.9-3.3 1.9q-1 0.5-1.9 1.1c-7.6 4.4-13.2 11-16.8 19-0.9 3.7-1.1 7.1-1.1 10.9q0 1.7 0 3.4c0 1.8 0 1.8 0 3.6q0 1.7 0 3.5c0 5.6 0.1 11 1.1 16.6-4.5-2.8-8.1-5.9-11.7-9.8-1.8-1.8-3.5-3.5-5.3-5.2q-1 0-2 0 0.2 3.3 0.4 6.7c0.2 1.8 0.2 1.8 0.3 3.7 0.2 3 0.6 5.7 1.3 8.6-5-3.9-8.9-8.2-13-13q-2-2.3-3.9-4.5-1.6-1.8-3.1-3.5c-5.1 5.1-4.4 14.1-4.4 20.9 0 8.1 0.3 14.5 5.4 21.1q0.8 1.1 1.6 2.3c6.7 9.5 6.7 9.5 15.4 16.7q3.5 0.1 7 0 0.1 1.7 0.3 3.4c1.3 10.2 6.7 16.5 13.7 23.6q0.9 0.9 1.8 1.8c24 25.2 24 25.2 56 35.5 18.3 0.3 29.7-7.7 43.2-19.3q1.2-1 2.4-2c5.5-4.9 10.7-10 16-15.2q1-1 2.1-2c5-5.1 9.3-9.9 11.3-16.9 0.3-1.3 0.3-1.3 0.7-2.5 0.6-2.6 0.6-2.6 0.5-6.4q1.5 0.2 3 0.4c4.5 0 6.7-2 9.8-5 10.2-11.2 17-20.5 16.5-36q-0.1-1.5-0.1-3-0.1-3.7-0.2-7.4c-3.1 0.6-5.2 1.6-7.8 3.5q-1 0.7-2.1 1.4-1.1 0.8-2.2 1.6-2.1 1.5-4.2 3-1 0.7-2 1.4c-1.7 1.1-1.7 1.1-4.7 2.1 0.8-1.7 0.8-1.7 1.6-3.4q1-2.3 2-4.5 0.5-1.1 1-2.2c0.9-2 1.6-3.9 2.4-5.9q-0.5-1-1-2-1 0.7-2.1 1.5-1.3 1-2.7 1.9-1.3 1-2.7 2c-2.5 1.6-2.5 1.6-5.5 2.6q0.3-1.2 0.7-2.4 1.3-4.5 2.6-9 0.8-2.9 1.7-5.8c3.9-12.9 3.9-12.9 5.3-26.2 0-1.2 0-1.2 0.1-2.5-0.5-2.6-1.4-3.5-3.4-5.1-0.7 1.5-0.7 1.5-1.4 3-10.2 20.9-22.9 39.9-37.6 58q-0.9 1.2-1.9 2.4c-3.7 4.5-3.7 4.5-7.1 5.6q0.3-1 0.6-2.1c2-7.8 3.5-15.6 4.7-23.5q0.5-3 1-6.1c1.8-11.2 2.9-22 2.9-33.4q0-1.5 0-3.1c0-6.2-0.6-11.7-2.2-17.8-6.5 0-15.2 9.7-19.7 13.8z"/>
	</g>
</svg>